<?xml version="1.0" encoding="UTF-8"?>
<svg version="1.1" viewBox="0 0 2048 1174" width="300" height="172" xmlns="http://www.w3.org/2000/svg">
<path transform="translate(1202)" d="m0 0 6 1 5 4 4 6 1 10-3 6-7 6-14 8-12 9-8 9-8 14-5 17-1 8v10l3 14 5 13 7 12 8 10 3 3v2l4 2 9 8 19 14 16 11 15 10 17 12 20 18 9 10 9 13 12 23 7 21 5 25 3 26 1 15 1 40 1 230 2 22 4 17 6 16 9 16 12 16 9 10 12 9 15 10 38 24 10 5 7 2h15l13-5 10-9 5-8 2-7 1-8v-242l-1-162-4-12-7-11-10-11-7-10-5-12-2-8v-10l3-12 7-14 9-10 9-8 11-9 13-11 14-11 10-6 15-7 12-3 7-1h25l17 4 17 8 12 9 16 13 11 10 11 9 13 12 8 9 6 12 1 4v12l-4 12-7 11-11 11-6 10-1 3-1 11-1 202-2 24-5 29-7 28-9 25-12 26-11 21-9 14-12 17-9 11-12 13-7 8-9 9-11 9-9 8-18 13-24 15-32 19-21 13-26 15-19 9-18 6-17 4-19 2h-29l-24-4-24-8-19-9-20-12-24-15-20-12-21-13-15-7-3-1h-11l-16 8-14 10-2 1h-13l-6-4-5-6-3-9v-6l5-8 9-8 14-11 10-8 8-9 6-12 3-12v-281l-2-37-3-25-4-18-6-16-8-15-8-11-9-11-9-10-44-44-10-13-12-19-7-16-5-19-1-9v-21l3-20 5-16 6-15 10-17 10-13 9-10 12-12 14-11 14-10 18-11 16-7 22-8 32-8z" fill="#FDFDFD"/>
<path transform="translate(374,191)" d="m0 0 27 1 22 3 21 5 22 8 21 10 20 13 16 12 15 14 10 10 9 11 10 14 9 15 8 16 8 20 7 24 3 16 2 21v144l-2 19-5 29-7 25-8 22-16 33-12 20-11 15-11 14-13 15-8 8-11 9-13 11-16 11-22 14-47 29-20 12-15 8-22 8-27 6-9 1h-30l-20-3-21-6-15-6-16-8-15-10-54-39-16-12-15-10-10-4-4-1h-17l-16 8-8 7-15 11-5 2h-10l-6-3-6-7-3-7v-6l5-8 11-11 11-9 14-11 9-8 7-11 5-11 3-13v-182l2-26 5-30 6-23 9-26 11-24 8-15 14-21 14-19 11-12 7-8 9-9 11-9 8-7 18-13 21-13 24-14 23-13 21-10 24-8 22-5 15-2zm-46 138-16 4-14 7-12 9-8 8-9 13-7 15-3 12-1 13v205l1 20 3 15 5 13 7 12 8 10 11 9 11 7 13 5 15 3h19l17-4 19-9 14-11 11-14 5-9 5-15 2-11v-231l-3-16-6-16-7-11-9-10-9-8-14-8-13-5-9-2z" fill="#FDFDFD"/>
<path transform="translate(814,665)" d="m0 0h13l10 3 11 6 13 12 60 60 7 10 5 12v20l-8 16-11 13-52 52-8 7-11 7-9 3-6 1h-14l-10-3-13-9-15-14-33-33v-2l-4-2-11-11-7-8-6-9-4-11-1-5v-9l3-12 6-11 12-13 3-1v-2l6-5 7-8 26-26 7-8 12-11 8-5 9-3z" fill="#FBB579"/>
<path transform="translate(1909,665)" d="m0 0h13l13 4 11 7 17 16 13 13v2l4 2v2l3 1v2l4 2 1 3h2v2l4 2 4 5 20 20 7 11 4 16-1 11-3 10-7 11-9 10-58 58-11 7-11 4-14 1-13-2-9-5-14-12-60-60-7-10-4-8-2-7v-17l4-11 8-11 34-34 7-8 24-24 13-9z" fill="#FBB579"/>
<path transform="translate(415,1012)" d="m0 0h7l5 5 4 11 17 51 13 37 10 28 2 4 7-19 37-111 5-5h13l-3 11-15 46-29 85-8 16-2 3h-12l-6-13-19-54-14-41-9-27-13 36-15 43-16 45-7 11h-11l-7-14-19-56-9-25-14-43-6-17v-6h15l4 8 23 70 15 43 5 13 2-3 12-36 14-40 14-41 5-11z" fill="#FEFEFE"/>
<path transform="translate(690 1e3)" d="m0 0h13l4 2-1 68 10-10 11-7 9-3 5-1h24l13 4 10 6 10 9 8 13 5 14 1 8v9l-2 14-5 13-8 11-8 8-10 6-17 6h-20l-13-5-12-7-11-10-2-1 1 3v11l-1 8-1 1h-12l-1-8zm55 62-10 2-10 5-8 7-8 13-3 14v11l2 12 5 10 9 10 8 5 8 3 6 1h16l9-3 11-7 7-7 5-9 3-15v-12l-4-15-6-10-7-7-11-6-10-2z" fill="#FEFEFE"/>
<path transform="translate(886,1012)" d="m0 0h14l16 2 21 7 5 3 1 6-2 7-3 2-19-8-15-3h-23l-12 3-6 4-5 5-4 8-1 9 3 9 5 7 12 6 22 6 21 6 15 6 11 8 6 9 2 6v19l-5 12-7 9-11 7-12 5-9 2h-29l-21-7-16-7-6-5-1-5 2-8 4-1 14 9 14 5 15 3h25l11-4 8-6 6-8 2-7-1-8-6-10-8-5-18-6-30-8-13-5-9-6-5-4-6-10-2-8v-15l4-11 6-8 9-8 11-5 11-3z" fill="#FEFEFE"/>
<path transform="translate(589,1053)" d="m0 0h21l13 3 12 7 5 4 9 12 6 13 3 12v12l-2 1-98 1 1 9 4 9 7 10 10 7 10 4 5 1h19l11-4 11-6 3-2h6l4 5-1 5-8 7-14 7-12 4h-21l-15-5-12-6-9-8-7-10-6-12-3-15v-13l3-14 7-14 9-10 9-7 11-5zm2 13-12 4-9 7-7 8-6 12v8l9 1h77l-1-8-7-14-9-10-14-7-5-1z" fill="#FEFEFE"/>
<path transform="translate(1529,1053)" d="m0 0h21l12 2 10 4 10 7 8 9 6 10 5 15v24l-3 12-6 11-8 10-7 6-9 5-13 5-4 1h-21l-10-3-15-8-10-9-7-10-5-11-3-14v-13l3-15 4-10 8-11 8-7 10-6zm5 13-11 3-8 4-7 6-7 11-4 12-1 6v11l3 14 6 10 4 5 10 7 9 3 6 1h16l11-4 9-6 7-7 6-12 2-11v-11l-3-14-7-12-8-8-11-6-8-2z" fill="#FEFEFE"/>
<path transform="translate(1020,1053)" d="m0 0h23l14 3 11 6 10 9 7 10 5 10 3 12v17l-3 14-7 14-9 10-7 6-14 7-11 3h-21l-13-4-13-8-7-6-8-11-6-12-2-7-1-16 2-14 5-13 7-11 8-8 12-7 9-3zm5 13-9 2-9 5-9 8-6 10-4 14v20l4 11 6 8 7 7 8 5 12 3h17l11-4 9-6 7-7 4-8 3-11v-21l-4-12-6-9-7-7-11-6-9-2z" fill="#FEFEFE"/>
<path transform="translate(1634,1053)" d="m0 0h13l3 3 1 15 8-7 8-6 10-4 5-1h24l12 3 10 6 7 8 6 11 3 14v68l-1 10-7 1h-8l-1-76-2-10-6-10-8-7-9-3-11-1-14 2-12 6-7 8-5 10-2 12-1 69-11-2v2h-5z" fill="#FEFEFE"/>
<path transform="translate(1186,1053)" d="m0 0 13 1 2 2 1 69 2 12 6 12 10 6 12 3h13l10-3 10-6 8-9 3-6 1-8 1-72h16v119l-14 1-1-5-1-14-15 11-13 7-4 1h-20l-10-3-13-7-7-6-6-10-3-8-2-19v-23z" fill="#FEFEFE"/>
<path transform="translate(1815,1052)" d="m0 0h12l16 2 16 5 4 3v7l-4 6-6-1-12-5-10-2h-19l-10 3-6 4-4 6-1 6 3 8 5 5 11 4 30 6 11 4 8 5 7 8 3 8v10l-3 9-8 10-9 5-11 5-4 1h-27l-16-5-15-6-3-2-1-5 3-9 6 2 15 6 17 3h22l9-4 6-5 2-5v-7l-3-6-8-5-12-3-28-6-13-5-8-7-4-9-1-5v-8l2-9 4-6 7-7 12-6 7-2z" fill="#FDFDFD"/>
<path transform="translate(1342,1027)" d="m0 0h15l1 7v20h35l2 10-3 3h-34l1 80 1 7 10 3 5 1h13l5-2h6l1 1-1 10-12 7h-19l-10-4-10-9-4-6-2-8-1-80h-18l-2-1-1-3v-7l2-2h20z" fill="#FEFEFE"/>
<path transform="translate(1127 1e3)" d="m0 0h9l5 1v164l-1 5h-13l-1-12v-157z" fill="#FEFEFE"/>
<path transform="translate(1437,1053)" d="m0 0h8l2 2v98l-1 21-11-2v2h-4v-120z" fill="#FEFEFE"/>
<path transform="translate(1436 1e3)" d="m0 0h9l6 5v8l-4 6-2 2-7 1-8-3-3-5v-7l5-5z" fill="#FEFEFE"/>
</svg>
