<svg aria-hidden="true" style="position: absolute; width: 0; height: 0; overflow: hidden;" version="1.1" xmlns="http://www.w3.org/2000/svg" xmlns:xlink="http://www.w3.org/1999/xlink">
<defs>

<symbol id="icon-LO" viewBox="0 0 2048 1174">
<path xmlns="http://www.w3.org/2000/svg" transform="translate(1202)" d="m0 0 6 1 5 4 4 6 1 10-3 6-7 6-14 8-12 9-8 9-8 14-5 17-1 8v10l3 14 5 13 7 12 8 10 3 3v2l4 2 9 8 19 14 16 11 15 10 17 12 20 18 9 10 9 13 12 23 7 21 5 25 3 26 1 15 1 40 1 230 2 22 4 17 6 16 9 16 12 16 9 10 12 9 15 10 38 24 10 5 7 2h15l13-5 10-9 5-8 2-7 1-8v-242l-1-162-4-12-7-11-10-11-7-10-5-12-2-8v-10l3-12 7-14 9-10 9-8 11-9 13-11 14-11 10-6 15-7 12-3 7-1h25l17 4 17 8 12 9 16 13 11 10 11 9 13 12 8 9 6 12 1 4v12l-4 12-7 11-11 11-6 10-1 3-1 11-1 202-2 24-5 29-7 28-9 25-12 26-11 21-9 14-12 17-9 11-12 13-7 8-9 9-11 9-9 8-18 13-24 15-32 19-21 13-26 15-19 9-18 6-17 4-19 2h-29l-24-4-24-8-19-9-20-12-24-15-20-12-21-13-15-7-3-1h-11l-16 8-14 10-2 1h-13l-6-4-5-6-3-9v-6l5-8 9-8 14-11 10-8 8-9 6-12 3-12v-281l-2-37-3-25-4-18-6-16-8-15-8-11-9-11-9-10-44-44-10-13-12-19-7-16-5-19-1-9v-21l3-20 5-16 6-15 10-17 10-13 9-10 12-12 14-11 14-10 18-11 16-7 22-8 32-8z" fill="#FDFDFD"/>
<path xmlns="http://www.w3.org/2000/svg" transform="translate(374,191)" d="m0 0 27 1 22 3 21 5 22 8 21 10 20 13 16 12 15 14 10 10 9 11 10 14 9 15 8 16 8 20 7 24 3 16 2 21v144l-2 19-5 29-7 25-8 22-16 33-12 20-11 15-11 14-13 15-8 8-11 9-13 11-16 11-22 14-47 29-20 12-15 8-22 8-27 6-9 1h-30l-20-3-21-6-15-6-16-8-15-10-54-39-16-12-15-10-10-4-4-1h-17l-16 8-8 7-15 11-5 2h-10l-6-3-6-7-3-7v-6l5-8 11-11 11-9 14-11 9-8 7-11 5-11 3-13v-182l2-26 5-30 6-23 9-26 11-24 8-15 14-21 14-19 11-12 7-8 9-9 11-9 8-7 18-13 21-13 24-14 23-13 21-10 24-8 22-5 15-2zm-46 138-16 4-14 7-12 9-8 8-9 13-7 15-3 12-1 13v205l1 20 3 15 5 13 7 12 8 10 11 9 11 7 13 5 15 3h19l17-4 19-9 14-11 11-14 5-9 5-15 2-11v-231l-3-16-6-16-7-11-9-10-9-8-14-8-13-5-9-2z" fill="#FDFDFD"/>
<path xmlns="http://www.w3.org/2000/svg" transform="translate(814,665)" d="m0 0h13l10 3 11 6 13 12 60 60 7 10 5 12v20l-8 16-11 13-52 52-8 7-11 7-9 3-6 1h-14l-10-3-13-9-15-14-33-33v-2l-4-2-11-11-7-8-6-9-4-11-1-5v-9l3-12 6-11 12-13 3-1v-2l6-5 7-8 26-26 7-8 12-11 8-5 9-3z" fill="#F96D00"/>
<path xmlns="http://www.w3.org/2000/svg" transform="translate(1909,665)" d="m0 0h13l13 4 11 7 17 16 13 13v2l4 2v2l3 1v2l4 2 1 3h2v2l4 2 4 5 20 20 7 11 4 16-1 11-3 10-7 11-9 10-58 58-11 7-11 4-14 1-13-2-9-5-14-12-60-60-7-10-4-8-2-7v-17l4-11 8-11 34-34 7-8 24-24 13-9z" fill="#F96D00"/>
<path xmlns="http://www.w3.org/2000/svg" transform="translate(415,1012)" d="m0 0h7l5 5 4 11 17 51 13 37 10 28 2 4 7-19 37-111 5-5h13l-3 11-15 46-29 85-8 16-2 3h-12l-6-13-19-54-14-41-9-27-13 36-15 43-16 45-7 11h-11l-7-14-19-56-9-25-14-43-6-17v-6h15l4 8 23 70 15 43 5 13 2-3 12-36 14-40 14-41 5-11z" fill="#FEFEFE"/>
<path xmlns="http://www.w3.org/2000/svg" transform="translate(690 1e3)" d="m0 0h13l4 2-1 68 10-10 11-7 9-3 5-1h24l13 4 10 6 10 9 8 13 5 14 1 8v9l-2 14-5 13-8 11-8 8-10 6-17 6h-20l-13-5-12-7-11-10-2-1 1 3v11l-1 8-1 1h-12l-1-8zm55 62-10 2-10 5-8 7-8 13-3 14v11l2 12 5 10 9 10 8 5 8 3 6 1h16l9-3 11-7 7-7 5-9 3-15v-12l-4-15-6-10-7-7-11-6-10-2z" fill="#FEFEFE"/>
<path xmlns="http://www.w3.org/2000/svg" transform="translate(886,1012)" d="m0 0h14l16 2 21 7 5 3 1 6-2 7-3 2-19-8-15-3h-23l-12 3-6 4-5 5-4 8-1 9 3 9 5 7 12 6 22 6 21 6 15 6 11 8 6 9 2 6v19l-5 12-7 9-11 7-12 5-9 2h-29l-21-7-16-7-6-5-1-5 2-8 4-1 14 9 14 5 15 3h25l11-4 8-6 6-8 2-7-1-8-6-10-8-5-18-6-30-8-13-5-9-6-5-4-6-10-2-8v-15l4-11 6-8 9-8 11-5 11-3z" fill="#FEFEFE"/>
<path xmlns="http://www.w3.org/2000/svg" transform="translate(589,1053)" d="m0 0h21l13 3 12 7 5 4 9 12 6 13 3 12v12l-2 1-98 1 1 9 4 9 7 10 10 7 10 4 5 1h19l11-4 11-6 3-2h6l4 5-1 5-8 7-14 7-12 4h-21l-15-5-12-6-9-8-7-10-6-12-3-15v-13l3-14 7-14 9-10 9-7 11-5zm2 13-12 4-9 7-7 8-6 12v8l9 1h77l-1-8-7-14-9-10-14-7-5-1z" fill="#FEFEFE"/>
<path xmlns="http://www.w3.org/2000/svg" transform="translate(1529,1053)" d="m0 0h21l12 2 10 4 10 7 8 9 6 10 5 15v24l-3 12-6 11-8 10-7 6-9 5-13 5-4 1h-21l-10-3-15-8-10-9-7-10-5-11-3-14v-13l3-15 4-10 8-11 8-7 10-6zm5 13-11 3-8 4-7 6-7 11-4 12-1 6v11l3 14 6 10 4 5 10 7 9 3 6 1h16l11-4 9-6 7-7 6-12 2-11v-11l-3-14-7-12-8-8-11-6-8-2z" fill="#FEFEFE"/>
<path xmlns="http://www.w3.org/2000/svg" transform="translate(1020,1053)" d="m0 0h23l14 3 11 6 10 9 7 10 5 10 3 12v17l-3 14-7 14-9 10-7 6-14 7-11 3h-21l-13-4-13-8-7-6-8-11-6-12-2-7-1-16 2-14 5-13 7-11 8-8 12-7 9-3zm5 13-9 2-9 5-9 8-6 10-4 14v20l4 11 6 8 7 7 8 5 12 3h17l11-4 9-6 7-7 4-8 3-11v-21l-4-12-6-9-7-7-11-6-9-2z" fill="#FEFEFE"/>
<path xmlns="http://www.w3.org/2000/svg" transform="translate(1634,1053)" d="m0 0h13l3 3 1 15 8-7 8-6 10-4 5-1h24l12 3 10 6 7 8 6 11 3 14v68l-1 10-7 1h-8l-1-76-2-10-6-10-8-7-9-3-11-1-14 2-12 6-7 8-5 10-2 12-1 69-11-2v2h-5z" fill="#FEFEFE"/>
<path xmlns="http://www.w3.org/2000/svg" transform="translate(1186,1053)" d="m0 0 13 1 2 2 1 69 2 12 6 12 10 6 12 3h13l10-3 10-6 8-9 3-6 1-8 1-72h16v119l-14 1-1-5-1-14-15 11-13 7-4 1h-20l-10-3-13-7-7-6-6-10-3-8-2-19v-23z" fill="#FEFEFE"/>
<path xmlns="http://www.w3.org/2000/svg" transform="translate(1815,1052)" d="m0 0h12l16 2 16 5 4 3v7l-4 6-6-1-12-5-10-2h-19l-10 3-6 4-4 6-1 6 3 8 5 5 11 4 30 6 11 4 8 5 7 8 3 8v10l-3 9-8 10-9 5-11 5-4 1h-27l-16-5-15-6-3-2-1-5 3-9 6 2 15 6 17 3h22l9-4 6-5 2-5v-7l-3-6-8-5-12-3-28-6-13-5-8-7-4-9-1-5v-8l2-9 4-6 7-7 12-6 7-2z" fill="#FDFDFD"/>
<path xmlns="http://www.w3.org/2000/svg" transform="translate(1342,1027)" d="m0 0h15l1 7v20h35l2 10-3 3h-34l1 80 1 7 10 3 5 1h13l5-2h6l1 1-1 10-12 7h-19l-10-4-10-9-4-6-2-8-1-80h-18l-2-1-1-3v-7l2-2h20z" fill="#FEFEFE"/>
<path xmlns="http://www.w3.org/2000/svg" transform="translate(1127 1e3)" d="m0 0h9l5 1v164l-1 5h-13l-1-12v-157z" fill="#FEFEFE"/>
<path xmlns="http://www.w3.org/2000/svg" transform="translate(1437,1053)" d="m0 0h8l2 2v98l-1 21-11-2v2h-4v-120z" fill="#FEFEFE"/>
<path xmlns="http://www.w3.org/2000/svg" transform="translate(1436 1e3)" d="m0 0h9l6 5v8l-4 6-2 2-7 1-8-3-3-5v-7l5-5z" fill="#FEFEFE"/>
</symbol>

<symbol id="icon-checkmark" viewBox="0 0 20 20">
<path d="M0 11l2-2 5 5 11-11 2 2-13 13z"></path>
</symbol>

<symbol id="icon-ukraine" viewBox="0 0 1280 854">
<path xmlns="http://www.w3.org/2000/svg" transform="translate(0)" d="m0 0h1280v854h-1280z" fill="#FFD700"/>
<path xmlns="http://www.w3.org/2000/svg" transform="translate(0)" d="m0 0h1280v427h-1280z" fill="#0057B7"/>
</symbol>

<symbol id="icon-doubleLeftArrow" viewBox="0 0 29 32">
    <path fill="#872330" style="fill: var(--color1, #872330)" d="M15.032 1.089c0.112-0.115 0.245-0.206 0.392-0.268s0.306-0.094 0.466-0.094c0.16 0 0.318 0.032 0.466 0.094s0.281 0.153 0.392 0.268c0.229 0.235 0.357 0.55 0.357 0.878s-0.128 0.643-0.357 0.878l-12.824 13.153 12.824 13.155c0.115 0.118 0.207 0.258 0.268 0.411s0.092 0.317 0.090 0.483-0.036 0.328-0.101 0.48c-0.065 0.152-0.159 0.29-0.278 0.405-0.113 0.11-0.246 0.197-0.392 0.255s-0.302 0.088-0.46 0.086c-0.157-0.002-0.313-0.035-0.458-0.097s-0.276-0.152-0.385-0.265l-13.637-13.995c-0.24-0.246-0.374-0.575-0.374-0.918s0.134-0.673 0.374-0.918l13.637-13.989zM25.558 1.089c0.112-0.115 0.245-0.206 0.392-0.268s0.306-0.094 0.466-0.094 0.318 0.032 0.466 0.094c0.147 0.062 0.281 0.153 0.392 0.268 0.229 0.235 0.357 0.55 0.357 0.878s-0.128 0.643-0.357 0.878l-12.824 13.153 12.824 13.155c0.115 0.118 0.206 0.258 0.268 0.411s0.092 0.317 0.090 0.483-0.036 0.328-0.101 0.48c-0.065 0.152-0.159 0.29-0.278 0.405-0.113 0.11-0.246 0.197-0.392 0.255s-0.302 0.088-0.46 0.086c-0.157-0.002-0.313-0.035-0.458-0.097s-0.276-0.152-0.386-0.265l-13.637-13.995c-0.239-0.246-0.374-0.575-0.374-0.918s0.134-0.673 0.374-0.918l13.637-13.989z"></path>
</symbol>

<symbol id="icon-doubleRightArrow" viewBox="0 0 28 32">
    <path fill="#872330" style="fill: var(--color1, #872330)" d="M13.469 31.621c-0.119 0.12-0.262 0.215-0.419 0.281s-0.327 0.099-0.498 0.099-0.34-0.034-0.498-0.099c-0.158-0.065-0.3-0.161-0.419-0.281-0.245-0.246-0.381-0.576-0.381-0.919s0.137-0.673 0.381-0.919l13.707-13.779-13.707-13.782c-0.123-0.124-0.221-0.27-0.286-0.431s-0.098-0.332-0.096-0.506c0.002-0.173 0.039-0.344 0.108-0.503s0.17-0.303 0.297-0.424c0.12-0.115 0.263-0.206 0.419-0.267s0.323-0.092 0.492-0.090c0.168 0.002 0.334 0.037 0.489 0.102s0.295 0.159 0.412 0.278l14.577 14.661c0.256 0.257 0.399 0.603 0.399 0.962s-0.143 0.705-0.399 0.962l-14.577 14.656zM2.217 31.621c-0.119 0.12-0.262 0.215-0.419 0.281s-0.327 0.099-0.498 0.099-0.34-0.034-0.498-0.099c-0.157-0.065-0.3-0.161-0.419-0.281-0.244-0.246-0.381-0.576-0.381-0.919s0.137-0.673 0.381-0.919l13.707-13.779-13.707-13.782c-0.123-0.124-0.221-0.27-0.286-0.431s-0.098-0.332-0.096-0.506c0.002-0.173 0.039-0.344 0.108-0.503s0.17-0.303 0.297-0.424c0.12-0.115 0.263-0.206 0.419-0.267s0.323-0.092 0.492-0.090c0.168 0.002 0.334 0.037 0.489 0.102s0.295 0.159 0.412 0.278l14.577 14.661c0.256 0.257 0.399 0.603 0.399 0.962s-0.143 0.705-0.399 0.962l-14.577 14.656z"></path>
</symbol>   

<symbol id="icon-spiralRetrite" viewBox="0 0 35 32">
<path fill="none" style="stroke: var(--color1, #ab1c12)" stroke-linejoin="miter" stroke-linecap="round" stroke-miterlimit="4" stroke-width="1.6842" d="M23.888 17.292c-4.295 0-6.139-2.006-5.878-7.154 0.115-2.272 3.721-1.431 5.079-1.431 3.016 0 3.475 0.108 5.333 2.822 7.271 10.62-13.376 14.54-13.678 3.299-0.168-6.276-0.011-9.27 5.732-11.844 8.581-3.845 13.206 1.17 13.206 10.731 0 10.719-9.495 20.069-19.302 15.342-8.197-3.951-12.698-12.253-12.698-21.781"></path>
</symbol>

<symbol id="icon-arrow-right-main" viewBox="0 0 32 32">
<path d="M19.414 27.414l10-10c0.781-0.781 0.781-2.047 0-2.828l-10-10c-0.781-0.781-2.047-0.781-2.828 0s-0.781 2.047 0 2.828l6.586 6.586h-19.172c-1.105 0-2 0.895-2 2s0.895 2 2 2h19.172l-6.586 6.586c-0.39 0.39-0.586 0.902-0.586 1.414s0.195 1.024 0.586 1.414c0.781 0.781 2.047 0.781 2.828 0z"></path>
</symbol>
<symbol id="icon-arrow-left-main" viewBox="0 0 32 32">
<path d="M12.586 27.414l-10-10c-0.781-0.781-0.781-2.047 0-2.828l10-10c0.781-0.781 2.047-0.781 2.828 0s0.781 2.047 0 2.828l-6.586 6.586h19.172c1.105 0 2 0.895 2 2s-0.895 2-2 2h-19.172l6.586 6.586c0.39 0.39 0.586 0.902 0.586 1.414s-0.195 1.024-0.586 1.414c-0.781 0.781-2.047 0.781-2.828 0z"></path>
</symbol>

<!-- viza masercard -->
<symbol id="icon-viza" viewBox="40 -12 71 71">
<path xmlns="http://www.w3.org/2000/svg" d="M73.5907 0.84803L63.6597 47.2743H51.6503L61.585 0.84803H73.5907ZM124.12 30.8239L130.441 13.3926L134.079 30.8239H124.12ZM137.52 47.2743H148.627L138.932 0.84803H128.68C126.374 0.84803 124.43 2.18993 123.569 4.25415L105.547 47.2743H118.157L120.662 40.3393H136.07L137.52 47.2743ZM106.173 32.1161C106.225 19.8633 89.2299 19.188 89.3469 13.7144C89.3831 12.0487 90.9696 10.2777 94.4409 9.82513C96.1619 9.59971 100.903 9.42763 106.281 11.9029L108.39 2.05826C105.501 1.00966 101.783 1.10115e-06 97.1563 1.10115e-06C85.2856 1.10115e-06 76.9317 6.31079 76.8611 15.3466C76.7845 22.0303 82.8241 25.7598 87.3739 27.9806C92.0549 30.2552 93.6252 31.7164 93.6077 33.751C93.5742 36.8656 89.8743 38.2404 86.4164 38.2942C80.3802 38.3869 76.8773 36.6607 74.0846 35.3624L71.9081 45.5332C74.7141 46.8207 79.8937 47.9439 85.264 48C97.8814 48 106.135 41.7679 106.173 32.1161M56.4307 0.84803L36.9724 47.2743H24.2774L14.7019 10.2239C14.1203 7.94158 13.6154 7.10602 11.8474 6.14482C8.96099 4.57842 4.19369 3.10957 0 2.19737L0.284944 0.84803H20.7207C23.3255 0.84803 25.6669 2.58209 26.2583 5.58197L31.3155 32.4468L43.8143 0.84803H56.4307Z"/>
</symbol>
<symbol id="icon-mastercard" viewBox="0 0 91 56">
<path xmlns="http://www.w3.org/2000/svg" d="M57.5527 5.98636H33.0527V50.0135H57.5527V5.98636Z" fill="#FF5F00"/>
<path xmlns="http://www.w3.org/2000/svg" d="M34.6088 28C34.605 23.7599 35.5658 19.5744 37.4186 15.7605C39.2714 11.9466 41.9677 8.60425 45.3032 5.98641C41.1726 2.73968 36.2119 0.720595 30.9881 0.159916C25.7642 -0.400763 20.488 0.519573 15.7626 2.81577C11.0371 5.11197 7.05291 8.69138 4.26553 13.1448C1.47815 17.5983 0 22.7462 0 28C0 33.2538 1.47815 38.4017 4.26553 42.8552C7.05291 47.3086 11.0371 50.888 15.7626 53.1842C20.488 55.4804 25.7642 56.4008 30.9881 55.8401C36.2119 55.2794 41.1726 53.2603 45.3032 50.0136C41.9677 47.3957 39.2715 44.0534 37.4187 40.2395C35.5659 36.4256 34.605 32.2401 34.6088 28V28Z" fill="#EB001B"/>
<path xmlns="http://www.w3.org/2000/svg" d="M90.6055 28C90.6057 33.2538 89.1277 38.4016 86.3405 42.8551C83.5532 47.3085 79.5692 50.8879 74.8438 53.1842C70.1184 55.4804 64.8423 56.4008 59.6186 55.8401C54.3948 55.2794 49.4342 53.2603 45.3037 50.0136C48.6363 47.3931 51.3304 44.0502 53.1829 40.2369C55.0354 36.4236 55.998 32.2395 55.998 28C55.998 23.7605 55.0354 19.5764 53.1829 15.7631C51.3304 11.9498 48.6363 8.60689 45.3037 5.9864C49.4342 2.73967 54.3948 0.72058 59.6186 0.159908C64.8423 -0.400763 70.1184 0.519613 74.8438 2.81584C79.5692 5.11206 83.5532 8.69147 86.3405 13.1449C89.1277 17.5984 90.6057 22.7462 90.6055 28V28Z" fill="#F79E1B"/>
<path xmlns="http://www.w3.org/2000/svg" d="M87.9333 45.3504V44.4491H88.2967V44.2654H87.3711V44.4491H87.7347V45.3504H87.9333ZM89.7303 45.3504V44.2636H89.4466L89.1203 45.0112L88.7938 44.2636H88.5099V45.3504H88.7103V44.5306L89.0163 45.2374H89.2241L89.5301 44.5289V45.3504H89.7303Z" fill="#F79E1B"/>
</symbol>

<!-- user -->
<symbol id="icon-user" viewBox="0 0 30 32">
    <path d="M15.238 16c4.208 0 7.619-3.411 7.619-7.619s-3.411-7.619-7.619-7.619c-4.208 0-7.619 3.411-7.619 7.619s3.411 7.619 7.619 7.619z"></path>
    <path d="M20.372 18.54h-10.268c-1.669 0.002-3.269 0.666-4.449 1.846s-1.844 2.78-1.846 4.449v1.832c0 2.525 2.047 4.571 4.571 4.571h13.714c2.525 0 4.571-2.047 4.571-4.571v-1.832c-0.002-1.669-0.666-3.269-1.846-4.449s-2.78-1.844-4.449-1.846z"></path>
</symbol>

<!-- arrow -->
<symbol id="icon-arrowRight" viewBox="0 0 32 32">
    <path d="M24.357 13.367l-4.781-4.781c-0.375-0.375-0.884-0.586-1.414-0.585s-1.039 0.211-1.414 0.586c-0.375 0.375-0.586 0.884-0.585 1.414s0.211 1.039 0.586 1.414l3.252 3.252h-11.724c-0.53 0-1.039 0.211-1.414 0.586s-0.586 0.884-0.586 1.414c0 0.531 0.211 1.039 0.586 1.414s0.884 0.586 1.414 0.586h11.724l-3.252 3.252c-0.375 0.375-0.586 0.884-0.586 1.414s0.211 1.039 0.585 1.414c0.375 0.375 0.884 0.586 1.414 0.586s1.039-0.211 1.414-0.586l4.781-4.781c0.874-0.876 1.364-2.063 1.364-3.3s-0.491-2.424-1.364-3.3z"></path>
</symbol>

<symbol id="icon-arrow-down" viewBox="0 0 24 24">
<path d="M7.406 8.578l4.594 4.594 4.594-4.594 1.406 1.406-6 6-6-6z"></path>
</symbol>

<symbol id="icon-arrowRightNext" viewBox="0 0 20 20">
    <path d="M13.25 10l-7.141-7.42c-0.268-0.27-0.268-0.707 0-0.979 0.268-0.27 0.701-0.27 0.969 0l7.83 7.908c0.268 0.271 0.268 0.709 0 0.979l-7.83 7.908c-0.268 0.271-0.701 0.27-0.969 0s-0.268-0.707 0-0.979l7.141-7.417z"></path>
</symbol>
<symbol id="icon-arrowUp" viewBox="0 0 58 32">
<path fill="none" stroke="#643843" style="stroke: var(--color1, #643843)" stroke-linejoin="round" stroke-linecap="round" stroke-miterlimit="4" stroke-width="4.3636" d="M53.333 27.151l-24.242-24.242-24.242 24.242"></path>
</symbol>

<!-- arrows -->
<symbol id="arrow-left" viewBox="0 0 212 32">
<path d="M212 16l-24-13.856v27.713l24-13.856zM190.4 13.6h-190.4v4.8h190.4v-4.8z"></path>
</symbol>
<symbol id="arrow-right" viewBox="0 0 212 32">
<path d="M0 16l24 13.856v-27.713l-24 13.856zM212 13.6h-190.4v4.8h190.4v-4.8z"></path>
</symbol>

<!-- arrows -->

<!-- social Icon Telegram / facebook / twitter / mailer / linkedin / tiktok / youTube / whatsapp / calendly -->
<symbol id="icon-telegram" viewBox="0 0 2048 2048">
<path xmlns="http://www.w3.org/2000/svg" transform="translate(1856,309)" d="m0 0h30l22 5 16 7 11 7 10 8 11 11 10 14 10 21 4 13 3 15 1 9v35l-2 18-13 62-28 132-27 127-20 95-12 56-21 99-11 52-20 94-20 95-12 56-21 99-20 94-26 123-16 75-18 84-7 25-6 16-8 16-10 16-14 15-12 10-10 6-20 8-19 4h-24l-24-5-21-7-20-9-11-7-152-112-20-15-18-13-20-15-95-70-16-12-19-14-18-13-17-13-14-10-19-14-17-13-18-14-18-13-13-10-18-13-19-14-20-15-18-13-16-12-57-42-16-12-18-13-21-16-11-8-7-8-4-8-1-4v-10l3-9 6-9 15-14 8-7 12-11 8-7 12-11 8-7 12-11 8-7 12-11 8-7 12-11 8-7 12-11 8-7 12-11 8-7 12-11 8-7 30-27 12-11 8-7 10-9 12-11 8-7 12-11 8-7 12-11 8-7 12-11 8-7 12-11 8-7 12-11 8-7 12-11 8-7 20-18 12-11 8-7 11-10 8-7 14-13 8-7 10-9 8-7 12-11 10-9 8-7 12-11 8-7 12-11 8-7 12-11 8-7 12-11 8-7 12-11 8-7 12-11 8-7 12-11 8-7 12-11 8-7 12-11 8-7 12-11 8-7 12-11 8-7 12-11 8-7 12-11h2v-2l8-7 10-9 8-7 24-22 11-8 9-3h12l9 3 8 6 6 9 3 9v10l-4 10-6 8-11 11-11 9-8 8-8 7-12 11-8 7-10 9-12 11-8 7-11 10-8 7-13 12-8 7-11 10-8 7-13 12-8 7-11 10-8 7-13 12-8 7-11 10-8 7-13 12-8 7-11 10-8 7-13 12-8 7-11 10-8 7-12 11-8 7-12 11-8 7-12 11-8 7-12 11-8 7-13 12-8 7-11 10-8 7-12 11-8 7-12 11-8 7-12 11-8 7-12 11-8 7-12 11-8 7-12 11-8 7-13 12-8 7-11 10-8 7-13 12-8 7-11 10-8 7-13 12-8 7-11 10h-2v2l-8 7-30 27-8 7-13 12-8 7-11 10h-2v2l-8 7-10 9-11 10-8 7-11 9v2l18 13 13 10 18 13 20 15 76 56 16 12 15 11 38 28 16 11 19 14 21 16 14 10 12 9 14 10 16 12 19 14 16 12 18 13 16 12 57 42 12 9 15 11 19 14 12 9 76 56 16 12 19 14 16 12 18 13 20 9 12 4 7 1h19l9-3 7-4 7-6 8-12 8-20 7-26 23-109 14-65 12-57 11-52 16-75 20-95 13-60 10-48 13-61 27-128 11-51 18-85 26-123 16-75 15-70 12-57 15-71 9-43 3-20v-21l-3-18-5-12-8-11-10-7-9-3-15-1-14 2-25 9-77 30-26 10-21 8-31 12-96 37-132 51-135 52-145 56-21 8-31 12-96 37-132 51-192 74-88 34-192 74-42 16-49 19-44 17-52 20-38 15-15 7-15 8-12 8-8 7h-2l-2 4-5 7-1 4 4 6 11 8 17 8 44 14 29 9 151 47 183 57 9 3 6-1 26-16 23-15 20-12 15-10 18-11 23-15 18-11 22-14 38-24 24-15 22-14 19-12 24-15 79-50 24-15 44-28 11-6 4-1h15l9 4 6 4 6 9 3 7v15l-6 12-7 7-22 14-24 15-19 12-24 15-22 14-114 72-24 15-23 15-20 12-17 11-57 36-24 15-44 28-6 4 4 16 21 69 24 79 14 46 17 56 20 66 21 69 19 62 11 36 2 4 9 1h17l15-3 14-7 11-9 7-6 27-27h2v-2l8-7 27-27 8-7 29-29h2l2-4 8-7 9-6 7-2h11l10 3 9 7 6 10 2 8v8l-3 9-6 9-34 34-8 7-22 22h-2v2l-8 7-30 30-8 7-15 14-15 11-12 7-15 6-19 5-17 2h-19l-17-2-15-4-13-7-10-9-6-8-8-16-8-24-16-52-42-138-20-66-18-59-17-56-13-43-14-46-8-26-11-4-125-39-269-84-20-7-21-10-15-10-10-9-7-7-9-14-5-12-2-7v-27l4-14 8-15 10-13 12-12 16-12 21-13 23-11 43-17 96-37 236-91 96-37 249-96 88-34 179-69 96-37 280-108 140-54 166-64 13-4z"/>
</symbol>

<symbol id="icon-twitter" viewBox="0 0 32 32">
<path d="M32 7.075c-1.175 0.525-2.444 0.875-3.769 1.031 1.356-0.813 2.394-2.1 2.887-3.631-1.269 0.75-2.675 1.3-4.169 1.594-1.2-1.275-2.906-2.069-4.794-2.069-3.625 0-6.563 2.938-6.563 6.563 0 0.512 0.056 1.012 0.169 1.494-5.456-0.275-10.294-2.888-13.531-6.862-0.563 0.969-0.887 2.1-0.887 3.3 0 2.275 1.156 4.287 2.919 5.463-1.075-0.031-2.087-0.331-2.975-0.819 0 0.025 0 0.056 0 0.081 0 3.181 2.263 5.838 5.269 6.437-0.55 0.15-1.131 0.231-1.731 0.231-0.425 0-0.831-0.044-1.237-0.119 0.838 2.606 3.263 4.506 6.131 4.563-2.25 1.762-5.075 2.813-8.156 2.813-0.531 0-1.050-0.031-1.569-0.094 2.913 1.869 6.362 2.95 10.069 2.95 12.075 0 18.681-10.006 18.681-18.681 0-0.287-0.006-0.569-0.019-0.85 1.281-0.919 2.394-2.075 3.275-3.394z"></path>
</symbol>

<symbol id="icon-twitter2" viewBox="0 0 32 32">
<path d="M24.325 3h4.411l-9.636 11.013 11.336 14.987h-8.876l-6.952-9.089-7.955 9.089h-4.413l10.307-11.78-10.875-14.22h9.101l6.284 8.308zM22.777 26.36h2.444l-15.776-20.859h-2.623z"></path>
</symbol>

<symbol id="icon-facebook" viewBox="0 0 2048 2048">
<path xmlns="http://www.w3.org/2000/svg" transform="translate(1221)" d="m0 0h416l1 364-1 2-158 1-67 1-26 3-19 4-20 6-18 8-16 10-11 9-4 2v2h-2l-2 4-7 8-11 17-7 14-8 24-4 20-1 10-1 23-1 119h329l8 1v384l-1 1h-336v1011h-510v-1012l-90 1h-243l-1-1v-381l1-2 130-1h202l1-62 3-59 4-46 6-46 7-37 6-26 7-25 11-36 10-26 12-27 11-22 12-19 11-17 10-15 9-11 14-17 9-10 7-8 16-15 14-13 17-13 19-14 15-10 23-13 23-12 29-13 30-11 23-7 31-8 35-7 35-5zm10 85-25 2-45 7-26 6-26 8-25 9-33 15-23 13-14 9-17 12-12 9-15 14-12 11-10 10-9 11-12 14-11 16-11 17-9 15-16 33-8 20-16 49-5 19-8 41-4 26-4 34-3 34-3 67v109l1 21-333 1-1 1v214h332l1 1011h340l1-1010 335-1 1-12v-203l-337-1 1-216 3-34 7-31 6-21 9-21 10-19 10-15 10-13 1-3h2l7-8 13-13 17-13 19-12 16-8 16-7 24-8 26-6 28-4 35-2 123-1v-196z"/>
</symbol>

<symbol id="icon-instagram" viewBox="0 0 32 32">
<path d="M12.718 2.905c0.261-0.001 0.522-0.001 0.784-0.002 0.545-0.001 1.090-0.001 1.634-0 0.691 0.001 1.382-0.001 2.074-0.004 0.539-0.002 1.078-0.002 1.616-0.002 0.255-0 0.509-0.001 0.764-0.002 2.569-0.012 5.476 0.030 7.519 1.804 2.067 2.129 1.989 5.25 1.986 8.018 0 0.261 0.001 0.522 0.002 0.784 0.001 0.545 0.001 1.090 0 1.634-0.001 0.691 0.001 1.382 0.004 2.074 0.002 0.539 0.002 1.078 0.002 1.616 0 0.255 0.001 0.509 0.002 0.764 0.012 2.569-0.030 5.476-1.804 7.519-2.129 2.067-5.25 1.989-8.018 1.986-0.261 0-0.522 0.001-0.784 0.002-0.545 0.001-1.090 0.001-1.634 0-0.691-0.001-1.382 0.001-2.074 0.004-0.539 0.002-1.078 0.002-1.616 0.002-0.255 0-0.509 0.001-0.764 0.002-2.569 0.012-5.476-0.030-7.519-1.804-2.067-2.129-1.989-5.25-1.986-8.018-0.001-0.261-0.001-0.522-0.002-0.784-0.001-0.545-0.001-1.090-0-1.634 0.001-0.691-0.001-1.382-0.004-2.074-0.002-0.539-0.002-1.078-0.002-1.616-0-0.255-0.001-0.509-0.002-0.764-0.012-2.569 0.030-5.476 1.804-7.519 2.129-2.067 5.25-1.989 8.018-1.986zM5.216 5.808c-1.259 1.569-1.396 3.662-1.395 5.604-0 0.109-0.001 0.219-0.001 0.332-0.001 0.358-0.001 0.716-0.002 1.073-0 0.252-0.001 0.504-0.001 0.756-0.001 0.527-0.001 1.053-0.001 1.58 0 0.67-0.002 1.34-0.004 2.010-0.001 0.52-0.002 1.040-0.002 1.56-0 0.247-0.001 0.493-0.002 0.74-0.038 3.86-0.038 3.86 1.779 7.12 1.573 1.444 3.78 1.597 5.824 1.596 0.109 0 0.219 0.001 0.332 0.001 0.358 0.001 0.716 0.001 1.073 0.002 0.252 0 0.504 0.001 0.756 0.001 0.527 0.001 1.053 0.001 1.58 0.001 0.67 0 1.34 0.002 2.010 0.004 0.52 0.001 1.040 0.002 1.56 0.002 0.247 0 0.493 0.001 0.74 0.002 3.86 0.038 3.86 0.038 7.12-1.779 1.444-1.573 1.597-3.78 1.596-5.824 0-0.109 0.001-0.219 0.001-0.332 0.001-0.358 0.001-0.716 0.002-1.073 0-0.252 0.001-0.504 0.001-0.756 0.001-0.527 0.001-1.053 0.001-1.58 0-0.67 0.002-1.34 0.004-2.010 0.001-0.52 0.002-1.040 0.002-1.56 0-0.247 0.001-0.493 0.002-0.74 0.038-3.86 0.038-3.86-1.779-7.12-1.573-1.444-3.78-1.597-5.824-1.596-0.109-0-0.219-0.001-0.332-0.001-0.358-0.001-0.716-0.001-1.073-0.002-0.252-0-0.504-0.001-0.756-0.001-0.527-0.001-1.053-0.001-1.58-0.001-0.67 0-1.34-0.002-2.010-0.004-0.52-0.001-1.040-0.002-1.56-0.002-0.247-0-0.493-0.001-0.74-0.002-4.017-0.028-4.017-0.028-7.321 1.999z"></path>
<path d="M20.224 11.008c1.107 0.88 1.977 2.306 2.176 3.712 0.18 2.247-0.183 3.963-1.611 5.759-1.053 1.153-2.557 1.874-4.104 1.96-2.11 0.072-3.795-0.401-5.389-1.856-1.425-1.528-1.799-3.228-1.74-5.242 0.088-1.622 0.897-3.148 2.083-4.253 2.614-2.052 5.931-2.057 8.585-0.080zM11.791 12.29c-1.11 1.413-1.463 2.955-1.296 4.734 0.249 1.341 0.972 2.539 2.048 3.384 1.501 1.019 3.117 1.349 4.905 1.017 1.515-0.447 2.655-1.387 3.438-2.741 0.737-1.391 0.871-3.006 0.425-4.515-0.601-1.555-1.652-2.576-3.116-3.306-2.266-0.905-4.74-0.357-6.404 1.428z"></path>
<path d="M23.040 8.192c0.214 0.037 0.428 0.079 0.64 0.128 0.049 0.212 0.091 0.426 0.128 0.64-0.128 0.128-0.128 0.128-0.448 0.144-0.32-0.016-0.32-0.016-0.448-0.144-0.016-0.32-0.016-0.32 0-0.64 0.042-0.042 0.084-0.084 0.128-0.128z"></path>
</symbol>

<symbol id="icon-linkedin" viewBox="0 0 32 32">
    <path d="M31.992 32v-0.001h0.008v-11.736c0-5.741-1.236-10.164-7.948-10.164-3.227 0-5.392 1.771-6.276 3.449h-0.093v-2.913h-6.364v21.364h6.627v-10.579c0-2.785 0.528-5.479 3.977-5.479 3.399 0 3.449 3.179 3.449 5.657v10.401h6.62z"></path>
    <path d="M0.528 10.636h6.635v21.364h-6.635v-21.364z"></path>
    <path d="M3.843 0c-2.121 0-3.843 1.721-3.843 3.843s1.721 3.879 3.843 3.879c2.121 0 3.843-1.757 3.843-3.879-0.001-2.121-1.723-3.843-3.843-3.843v0z"></path>
</symbol>

<symbol id="icon-tiktok" viewBox="0 0 32 32">
    <path d="M16.707 0.027c1.747-0.027 3.48-0.013 5.213-0.027 0.107 2.040 0.84 4.12 2.333 5.56 1.493 1.48 3.6 2.16 5.653 2.387v5.373c-1.92-0.067-3.853-0.467-5.6-1.293-0.76-0.347-1.467-0.787-2.16-1.24-0.013 3.893 0.013 7.787-0.027 11.667-0.107 1.867-0.72 3.72-1.8 5.253-1.747 2.56-4.773 4.227-7.88 4.28-1.907 0.107-3.813-0.413-5.44-1.373-2.693-1.587-4.587-4.493-4.867-7.613-0.027-0.667-0.040-1.333-0.013-1.987 0.24-2.533 1.493-4.96 3.44-6.613 2.213-1.92 5.307-2.84 8.2-2.293 0.027 1.973-0.053 3.947-0.053 5.92-1.32-0.427-2.867-0.307-4.027 0.493-0.84 0.547-1.48 1.387-1.813 2.333-0.28 0.68-0.2 1.427-0.187 2.147 0.32 2.187 2.427 4.027 4.667 3.827 1.493-0.013 2.92-0.88 3.693-2.147 0.253-0.44 0.533-0.893 0.547-1.413 0.133-2.387 0.080-4.76 0.093-7.147 0.013-5.373-0.013-10.733 0.027-16.093z"></path>
</symbol>

<symbol id="icon-youtube" viewBox="0 0 32 32">
    <path d="M31.681 9.6c0 0-0.313-2.206-1.275-3.175-1.219-1.275-2.581-1.281-3.206-1.356-4.475-0.325-11.194-0.325-11.194-0.325h-0.012c0 0-6.719 0-11.194 0.325-0.625 0.075-1.987 0.081-3.206 1.356-0.963 0.969-1.269 3.175-1.269 3.175s-0.319 2.588-0.319 5.181v2.425c0 2.587 0.319 5.181 0.319 5.181s0.313 2.206 1.269 3.175c1.219 1.275 2.819 1.231 3.531 1.369 2.563 0.244 10.881 0.319 10.881 0.319s6.725-0.012 11.2-0.331c0.625-0.075 1.988-0.081 3.206-1.356 0.962-0.969 1.275-3.175 1.275-3.175s0.319-2.587 0.319-5.181v-2.425c-0.006-2.588-0.325-5.181-0.325-5.181zM12.694 20.15v-8.994l8.644 4.513-8.644 4.481z"></path>
</symbol>

<symbol id="icon-whatsapp" viewBox="0 0 32 32">
    <path d="M27.281 4.65c-2.994-3-6.975-4.65-11.219-4.65-8.738 0-15.85 7.112-15.85 15.856 0 2.794 0.731 5.525 2.119 7.925l-2.25 8.219 8.406-2.206c2.319 1.262 4.925 1.931 7.575 1.931h0.006c0 0 0 0 0 0 8.738 0 15.856-7.113 15.856-15.856 0-4.238-1.65-8.219-4.644-11.219zM16.069 29.050v0c-2.369 0-4.688-0.637-6.713-1.837l-0.481-0.288-4.987 1.306 1.331-4.863-0.313-0.5c-1.325-2.094-2.019-4.519-2.019-7.012 0-7.269 5.912-13.181 13.188-13.181 3.519 0 6.831 1.375 9.319 3.862 2.488 2.494 3.856 5.8 3.856 9.325-0.006 7.275-5.919 13.188-13.181 13.188zM23.294 19.175c-0.394-0.2-2.344-1.156-2.706-1.288s-0.625-0.2-0.894 0.2c-0.262 0.394-1.025 1.288-1.256 1.556-0.231 0.262-0.462 0.3-0.856 0.1s-1.675-0.619-3.188-1.969c-1.175-1.050-1.975-2.35-2.206-2.744s-0.025-0.613 0.175-0.806c0.181-0.175 0.394-0.463 0.594-0.694s0.262-0.394 0.394-0.662c0.131-0.262 0.069-0.494-0.031-0.694s-0.894-2.15-1.219-2.944c-0.319-0.775-0.65-0.669-0.894-0.681-0.231-0.012-0.494-0.012-0.756-0.012s-0.694 0.1-1.056 0.494c-0.363 0.394-1.387 1.356-1.387 3.306s1.419 3.831 1.619 4.1c0.2 0.262 2.794 4.269 6.769 5.981 0.944 0.406 1.681 0.65 2.256 0.837 0.95 0.3 1.813 0.256 2.494 0.156 0.762-0.113 2.344-0.956 2.675-1.881s0.331-1.719 0.231-1.881c-0.094-0.175-0.356-0.275-0.756-0.475z"></path>
</symbol>

<symbol id="icon-calendly" viewBox="0 0 32 32">
    <path d="M26.215 14.632c-0.465 0.085-0.937 0.128-1.41 0.128-2.754 0-3.91-1.025-4.947-1.944-0.844-0.748-1.61-1.427-3.093-1.427h-1.233c-2.27 0-3.761 1.621-3.761 3.695v1.69c0 2.076 1.491 3.697 3.761 3.697h1.233c1.484 0 2.249-0.679 3.093-1.427 1.037-0.92 2.194-1.945 4.947-1.945 0.116 0 0.23-0.001 0.345-0.003 0.357-0.004 0.714-0.008 1.088 0.026zM26.238 17.122c1.030 0.35 2.251 0.896 2.85 1.336 0.817 0.606 0.659 1.288 0.535 1.694-1.011 3.279-3.166 6.084-6.069 7.91-2.904 1.824-6.368 2.547-9.76 2.037-3.392-0.512-6.487-2.223-8.725-4.824-2.238-2.598-3.469-5.916-3.469-9.346s1.231-6.748 3.469-9.346c2.238-2.601 5.333-4.311 8.725-4.823 3.392-0.51 6.856 0.213 9.76 2.037 2.903 1.826 5.058 4.631 6.069 7.91 0.124 0.405 0.282 1.088-0.535 1.694-0.851 0.623-1.833 1.043-2.869 1.231v-0.023h-0.004c-0.090-0.497-0.228-0.986-0.416-1.455 0.913-0.271 1.935-0.655 2.377-0.975-0.004-0.006-0.009-0.015-0.009-0.021-0.902-2.925-2.825-5.427-5.414-7.055-2.592-1.628-5.681-2.27-8.706-1.813-3.027 0.457-5.788 1.982-7.785 4.303-1.995 2.319-3.093 5.278-3.093 8.337s1.099 6.018 3.093 8.337c1.997 2.321 4.757 3.846 7.785 4.303 3.025 0.456 6.114-0.186 8.706-1.813 2.59-1.628 4.512-4.13 5.414-7.055 0.004-0.006 0.009-0.015 0.009-0.021-0.702-0.51-1.515-0.845-2.372-0.977h-0.002c-0 0-0.001 0.001-0.001 0.001 0.17-0.428 0.411-1.466 0.437-1.578 0-0.002 0.001-0.002 0.001-0.004 0 0 0-0 0 0z"></path>
    <path d="M25.799 18.707c-0.326-0.053-0.659-0.079-0.99-0.079-2.164 0-2.983 0.723-3.922 1.551l-0.010 0.008-0.003 0.003c-0.91 0.806-2.043 1.809-4.104 1.809h-1.233c-1.491 0-2.846-0.542-3.816-1.523-0.947-0.96-1.47-2.274-1.47-3.699v-1.685c0-1.425 0.523-2.739 1.47-3.699 0.969-0.981 2.325-1.523 3.816-1.523h1.233c2.063 0 3.196 1.003 4.107 1.811l0.001 0.001c0.943 0.836 1.758 1.559 3.931 1.559 0.333 0 0.664-0.030 0.99-0.083v-0.002l-0.009-0.017c-0.13-0.322-0.282-0.638-0.456-0.939l-1.453-2.517c-0.655-1.133-1.596-2.076-2.731-2.731s-2.421-1.001-3.731-1.001h-2.908c-1.31 0-2.596 0.346-3.731 1.001-1.133 0.655-2.076 1.598-2.731 2.731l-1.453 2.517c-0.655 1.135-1.001 2.421-1.001 3.731s0.346 2.596 1.001 3.731l1.453 2.517c0.655 1.133 1.598 2.076 2.731 2.731 1.135 0.655 2.421 1.001 3.731 1.001h2.908c1.31 0 2.596-0.346 3.731-1.001s2.076-1.598 2.731-2.731l1.453-2.513c0.175-0.301 0.326-0.617 0.456-0.939l0.009-0.019z"></path>
</symbol>

<!-- iconClose -->
<symbol id="icon-close" viewBox="0 0 32 32">
<path d="M25.707 24.292c0.093 0.093 0.167 0.203 0.217 0.325s0.076 0.252 0.076 0.383c0 0.131-0.026 0.261-0.076 0.383s-0.124 0.232-0.217 0.325c-0.093 0.093-0.203 0.167-0.325 0.217s-0.252 0.076-0.383 0.076c-0.131 0-0.262-0.026-0.383-0.076s-0.232-0.124-0.325-0.217l-8.292-8.294-8.293 8.294c-0.188 0.188-0.442 0.293-0.707 0.293s-0.52-0.105-0.707-0.293c-0.188-0.188-0.293-0.442-0.293-0.707s0.105-0.52 0.293-0.708l8.294-8.292-8.294-8.293c-0.188-0.188-0.293-0.442-0.293-0.707s0.105-0.52 0.293-0.707c0.188-0.188 0.442-0.293 0.707-0.293s0.52 0.105 0.707 0.293l8.293 8.294 8.292-8.294c0.188-0.188 0.442-0.293 0.708-0.293s0.52 0.105 0.707 0.293c0.188 0.188 0.293 0.442 0.293 0.707s-0.105 0.52-0.293 0.707l-8.294 8.293 8.294 8.292z"></path>
</symbol>

<!-- burgerMenu -->
<symbol id="icon-burger-menu" viewBox="0 0 32 32">
<path d="M4.799 8.001c0-0.424 0.169-0.831 0.469-1.131s0.707-0.469 1.131-0.469h19.2c0.424 0 0.831 0.169 1.131 0.469s0.469 0.707 0.469 1.131-0.169 0.831-0.469 1.131c-0.3 0.3-0.707 0.469-1.131 0.469h-19.2c-0.424 0-0.831-0.169-1.131-0.469s-0.469-0.707-0.469-1.131z"></path>
<path d="M4.799 16.001c0-0.424 0.169-0.831 0.469-1.131s0.707-0.469 1.131-0.469h19.2c0.424 0 0.831 0.169 1.131 0.469s0.469 0.707 0.469 1.131c0 0.424-0.169 0.831-0.469 1.131s-0.707 0.469-1.131 0.469h-19.2c-0.424 0-0.831-0.169-1.131-0.469s-0.469-0.707-0.469-1.131z"></path>
<path d="M4.799 24.001c0-0.424 0.169-0.831 0.469-1.131s0.707-0.469 1.131-0.469h19.2c0.424 0 0.831 0.169 1.131 0.469s0.469 0.707 0.469 1.131c0 0.424-0.169 0.831-0.469 1.131s-0.707 0.469-1.131 0.469h-19.2c-0.424 0-0.831-0.169-1.131-0.469s-0.469-0.707-0.469-1.131z"></path>
</symbol>

<!-- Star -->
<symbol id="icon-star" viewBox="0 0 32 32">
    <path d="M32 12.408l-11.056-1.607-4.944-10.018-4.944 10.018-11.056 1.607 8 7.798-1.889 11.011 9.889-5.199 9.889 5.199-1.889-11.011 8-7.798zM16 23.547l-6.983 3.671 1.334-7.776-5.65-5.507 7.808-1.134 3.492-7.075 3.492 7.075 7.807 1.134-5.65 5.507 1.334 7.776-6.983-3.671z"></path>
</symbol>
<symbol id="icon-star-fill" viewBox="0 0 32 32">
    <path d="M22.626 19.941l-0.010-0.006-0.066 0.053 0.094 0.014c0 0 4.052 10.204 3.203 11.683-1.669 1.265-8.842-5.595-9.774-6.501l0.006 0.035c0 0-8.059 8.048-9.925 6.609-1.118-0.812 2.947-12.030 2.947-12.030l0.019-0.003c-1.493-0.853-9.693-6.646-9.087-8.731 0.018-1.255 11.414-1.168 11.777-1.119 0.044-0.255 1.997-9.945 4.191-9.945 2.205 0 4.1 9.918 4.123 10.056h0.006l0.002 0.010 0.025-0.053c0 0 11.793-0.181 11.811 1.051 0.668 2.293-9.342 8.877-9.342 8.877z"></path>
</symbol>

<!-- geometry -->
<symbol id="icon-squad" viewBox="0 0 32 32">
    <path d="M25.799 18.707c-0.326-0.053-0.659-0.079-0.99-0.079-2.164 0-2.983 0.723-3.922 1.551l-0.010 0.008-0.003 0.003c-0.91 0.806-2.043 1.809-4.104 1.809h-1.233c-1.491 0-2.846-0.542-3.816-1.523-0.947-0.96-1.47-2.274-1.47-3.699v-1.685c0-1.425 0.523-2.739 1.47-3.699 0.969-0.981 2.325-1.523 3.816-1.523h1.233c2.063 0 3.196 1.003 4.107 1.811l0.001 0.001c0.943 0.836 1.758 1.559 3.931 1.559 0.333 0 0.664-0.030 0.99-0.083v-0.002l-0.009-0.017c-0.13-0.322-0.282-0.638-0.456-0.939l-1.453-2.517c-0.655-1.133-1.596-2.076-2.731-2.731s-2.421-1.001-3.731-1.001h-2.908c-1.31 0-2.596 0.346-3.731 1.001-1.133 0.655-2.076 1.598-2.731 2.731l-1.453 2.517c-0.655 1.135-1.001 2.421-1.001 3.731s0.346 2.596 1.001 3.731l1.453 2.517c0.655 1.133 1.598 2.076 2.731 2.731 1.135 0.655 2.421 1.001 3.731 1.001h2.908c1.31 0 2.596-0.346 3.731-1.001s2.076-1.598 2.731-2.731l1.453-2.513c0.175-0.301 0.326-0.617 0.456-0.939l0.009-0.019z"></path>
</symbol>

<!-- Camera / Photo / Phone -->
<symbol id="icon-camera" viewBox="0 0 32 32">
    <path d="M21 17c0 1.326-0.527 2.598-1.464 3.536s-2.209 1.464-3.536 1.464-2.598-0.527-3.536-1.464c-0.938-0.938-1.464-2.21-1.464-3.536s0.527-2.598 1.464-3.536c0.938-0.938 2.209-1.464 3.536-1.464s2.598 0.527 3.536 1.464c0.938 0.938 1.464 2.209 1.464 3.536z"></path>
    <path d="M4 8c-1.061 0-2.078 0.421-2.828 1.172s-1.172 1.768-1.172 2.828v12c0 1.061 0.421 2.078 1.172 2.828s1.768 1.172 2.828 1.172h24c1.061 0 2.078-0.421 2.828-1.172s1.172-1.768 1.172-2.828v-12c0-1.061-0.421-2.078-1.172-2.828s-1.768-1.172-2.828-1.172h-2.344c-1.061-0-2.078-0.422-2.828-1.172l-1.656-1.656c-0.75-0.75-1.767-1.172-2.828-1.172h-4.688c-1.061 0-2.078 0.422-2.828 1.172l-1.656 1.656c-0.75 0.75-1.767 1.172-2.828 1.172h-2.344zM5 12c-0.265 0-0.52-0.105-0.707-0.293s-0.293-0.442-0.293-0.707c0-0.265 0.105-0.52 0.293-0.707s0.442-0.293 0.707-0.293c0.265 0 0.52 0.105 0.707 0.293s0.293 0.442 0.293 0.707c0 0.265-0.105 0.52-0.293 0.707s-0.442 0.293-0.707 0.293zM23 17c0 1.857-0.737 3.637-2.050 4.95s-3.093 2.050-4.95 2.050c-1.857 0-3.637-0.737-4.95-2.050s-2.050-3.093-2.050-4.95c0-1.857 0.738-3.637 2.050-4.95s3.093-2.050 4.95-2.050c1.857 0 3.637 0.738 4.95 2.050s2.050 3.093 2.050 4.95z"></path>
</symbol>

<symbol id="icon-phone" viewBox="0 0 24 32">
    <path d="M19.635 18.487l-2.451-0.28c-0.589-0.067-1.167 0.135-1.582 0.55l-1.775 1.775c-2.731-1.389-4.969-3.618-6.359-6.359l1.785-1.785c0.415-0.415 0.618-0.994 0.55-1.582l-0.28-2.432c-0.116-0.975-0.936-1.708-1.92-1.708h-1.669c-1.090 0-1.997 0.907-1.93 1.997 0.511 8.24 7.102 14.821 15.332 15.332 1.090 0.068 1.997-0.839 1.997-1.93v-1.669c0.010-0.975-0.724-1.795-1.698-1.911z"></path>
</symbol>

<!-- mail / send -->
<symbol id="icon-mail" viewBox="0 0 24 32">
    <path d="M20 8h-16c-1.1 0-1.99 0.9-1.99 2l-0.010 12c0 1.1 0.9 2 2 2h16c1.1 0 2-0.9 2-2v-12c0-1.1-0.9-2-2-2zM19.6 12.25l-7.070 4.42c-0.32 0.2-0.74 0.2-1.060 0l-7.070-4.42c-0.25-0.16-0.4-0.43-0.4-0.72 0-0.67 0.73-1.070 1.3-0.72l6.7 4.19 6.7-4.19c0.57-0.35 1.3 0.050 1.3 0.72 0 0.29-0.15 0.56-0.4 0.72z"></path>
</symbol>

<symbol id="icon-send" viewBox="0 0 32 32">
    <path d="M32 2.667l-32 15 10.227 3.156 15.773-12.323-11.998 13.488 0.010 0.003-0.012-0.003v7.345l5.735-5.576 7.265 2.242 5-23.333z"></path>
</symbol>

<!-- checkbox -->
<symbol id="icon-checkbox" viewBox="0 0 20 20">
    <path d="M0 11l2-2 5 5 11-11 2 2-13 13z"></path>
</symbol>

<!-- clock -->
<symbol id="icon-clock" viewBox="0 0 24 24">
    <path d="M23 12c0-3.037-1.232-5.789-3.222-7.778s-4.741-3.222-7.778-3.222-5.789 1.232-7.778 3.222-3.222 4.741-3.222 7.778 1.232 5.789 3.222 7.778 4.741 3.222 7.778 3.222 5.789-1.232 7.778-3.222 3.222-4.741 3.222-7.778zM21 12c0 2.486-1.006 4.734-2.636 6.364s-3.878 2.636-6.364 2.636-4.734-1.006-6.364-2.636-2.636-3.878-2.636-6.364 1.006-4.734 2.636-6.364 3.878-2.636 6.364-2.636 4.734 1.006 6.364 2.636 2.636 3.878 2.636 6.364zM11 6v6c0 0.389 0.222 0.727 0.553 0.894l4 2c0.494 0.247 1.095 0.047 1.342-0.447s0.047-1.095-0.447-1.342l-3.448-1.723v-5.382c0-0.552-0.448-1-1-1s-1 0.448-1 1z"></path>
</symbol>

<!-- payments -->
<symbol id="icon-revolut" viewBox="0 0 32 32">
    <path stroke-linejoin="round" stroke-linecap="butt" stroke-miterlimit="4" stroke-width="3.122" d="M16.5 3.667c-2.236 0-4.927 0.325-6.346 0.522-0.587 0.081-1.038 0.549-1.111 1.137l-2.52 20.158c-0.192 1.539 0.966 2.945 2.515 2.893 1.318-0.044 2.457-0.2 3.489-0.52 0.842-0.261 1.377-1.045 1.496-1.918l0.81-5.938 2.365 6.57c0.381 1.058 1.386 1.782 2.509 1.715 1.708-0.102 3.018-0.382 4.631-0.997 0.784-0.299 1.044-1.26 0.612-1.979-1.643-2.732-2.256-5.107-3.117-7.976 0 0 3.667-2.333 3.667-6.333 0-6-5-7.333-9-7.333z"></path>
    <path d="M14.322 14.531l0.727-5.333c0.068-0.496 0.492-0.873 0.99-0.831 2.651 0.222 3.522 1.516 3.295 3.632-0.19 1.776-1.225 3.289-4.022 3.606-0.602 0.068-1.072-0.474-0.99-1.074z"></path>
</symbol>

<symbol id="icon-exit" viewBox="0 0 32 32">
<path fill="#643843" style="fill: var(--color1, #643843)" d="M6.4 2.133c-0.566 0-1.108 0.225-1.508 0.625s-0.625 0.943-0.625 1.508v23.467c0 0.566 0.225 1.108 0.625 1.508s0.943 0.625 1.508 0.625h16c0.283 0 0.554-0.112 0.754-0.312s0.312-0.471 0.312-0.754c0-0.283-0.112-0.554-0.312-0.754s-0.471-0.312-0.754-0.312h-16v-23.467h16c0.283 0 0.554-0.112 0.754-0.312s0.312-0.471 0.312-0.754-0.112-0.554-0.312-0.754c-0.2-0.2-0.471-0.312-0.754-0.312h-16zM26.888 10.445c-0.2-0.2-0.472-0.313-0.755-0.313s-0.555 0.113-0.755 0.313-0.313 0.472-0.313 0.755c0 0.283 0.112 0.555 0.313 0.755l2.98 2.978h-14.492c-0.283 0-0.554 0.112-0.754 0.312s-0.312 0.471-0.312 0.754c0 0.283 0.112 0.554 0.312 0.754s0.471 0.312 0.754 0.312h14.492l-2.98 2.978c-0.2 0.2-0.313 0.472-0.313 0.755s0.112 0.555 0.313 0.755c0.2 0.2 0.472 0.313 0.755 0.313s0.555-0.112 0.755-0.313l4.8-4.8c0.099-0.099 0.178-0.217 0.232-0.346s0.081-0.269 0.081-0.409c0-0.14-0.028-0.279-0.081-0.409s-0.132-0.247-0.232-0.346l-4.8-4.8z"></path>
</symbol>

<symbol id="icon-play" viewBox="0 0 32 32">
<path d="M12.668 20.779v-9.557c0-0.12 0.033-0.237 0.094-0.34s0.149-0.187 0.254-0.244c0.105-0.057 0.223-0.085 0.343-0.081s0.236 0.041 0.336 0.105l7.435 4.777c0.094 0.060 0.172 0.143 0.225 0.241s0.082 0.208 0.082 0.32c0 0.112-0.028 0.222-0.082 0.32s-0.131 0.181-0.225 0.241l-7.435 4.779c-0.101 0.065-0.217 0.101-0.336 0.105s-0.238-0.024-0.343-0.081c-0.105-0.057-0.193-0.142-0.254-0.244s-0.093-0.22-0.094-0.34v-0.001z"></path>
<path d="M1.332 16c0-8.1 6.567-14.667 14.667-14.667s14.667 6.567 14.667 14.667c0 8.1-6.567 14.667-14.667 14.667s-14.667-6.567-14.667-14.667zM15.999 3.333c-3.359 0-6.581 1.335-8.957 3.71s-3.71 5.597-3.71 8.957c0 3.359 1.335 6.581 3.71 8.957s5.597 3.71 8.957 3.71c3.359 0 6.581-1.335 8.957-3.71s3.71-5.597 3.71-8.957-1.335-6.581-3.71-8.957c-2.376-2.375-5.597-3.71-8.957-3.71z"></path>
</symbol>

<!-- date -->
<symbol id="icon-calendar" viewBox="0 0 32 32">
<path d="M2.33325 13.9998C2.33325 9.60034 2.33325 7.4 3.70059 6.03384C5.06675 4.6665 7.26709 4.6665 11.6666 4.6665H16.3333C20.7328 4.6665 22.9331 4.6665 24.2993 6.03384C25.6666 7.4 25.6666 9.60034 25.6666 13.9998V16.3332C25.6666 20.7327 25.6666 22.933 24.2993 24.2992C22.9331 25.6665 20.7328 25.6665 16.3333 25.6665H11.6666C7.26709 25.6665 5.06675 25.6665 3.70059 24.2992C2.33325 22.933 2.33325 20.7327 2.33325 16.3332V13.9998Z" stroke="#F5F9FC"/>
<path d="M8.1665 4.6665V2.9165M19.8332 4.6665V2.9165M2.9165 10.4998H25.0832" stroke="#F5F9FC" stroke-linecap="round"/>
<path d="M21 19.8333C21 20.1428 20.8771 20.4395 20.6583 20.6583C20.4395 20.8771 20.1428 21 19.8333 21C19.5239 21 19.2272 20.8771 19.0084 20.6583C18.7896 20.4395 18.6667 20.1428 18.6667 19.8333C18.6667 19.5239 18.7896 19.2272 19.0084 19.0084C19.2272 18.7896 19.5239 18.6667 19.8333 18.6667C20.1428 18.6667 20.4395 18.7896 20.6583 19.0084C20.8771 19.2272 21 19.5239 21 19.8333ZM21 15.1667C21 15.4761 20.8771 15.7728 20.6583 15.9916C20.4395 16.2104 20.1428 16.3333 19.8333 16.3333C19.5239 16.3333 19.2272 16.2104 19.0084 15.9916C18.7896 15.7728 18.6667 15.4761 18.6667 15.1667C18.6667 14.8572 18.7896 14.5605 19.0084 14.3417C19.2272 14.1229 19.5239 14 19.8333 14C20.1428 14 20.4395 14.1229 20.6583 14.3417C20.8771 14.5605 21 14.8572 21 15.1667ZM15.1667 19.8333C15.1667 20.1428 15.0437 20.4395 14.825 20.6583C14.6062 20.8771 14.3094 21 14 21C13.6906 21 13.3938 20.8771 13.175 20.6583C12.9562 20.4395 12.8333 20.1428 12.8333 19.8333C12.8333 19.5239 12.9562 19.2272 13.175 19.0084C13.3938 18.7896 13.6906 18.6667 14 18.6667C14.3094 18.6667 14.6062 18.7896 14.825 19.0084C15.0437 19.2272 15.1667 19.5239 15.1667 19.8333ZM15.1667 15.1667C15.1667 15.4761 15.0437 15.7728 14.825 15.9916C14.6062 16.2104 14.3094 16.3333 14 16.3333C13.6906 16.3333 13.3938 16.2104 13.175 15.9916C12.9562 15.7728 12.8333 15.4761 12.8333 15.1667C12.8333 14.8572 12.9562 14.5605 13.175 14.3417C13.3938 14.1229 13.6906 14 14 14C14.3094 14 14.6062 14.1229 14.825 14.3417C15.0437 14.5605 15.1667 14.8572 15.1667 15.1667ZM9.33333 19.8333C9.33333 20.1428 9.21042 20.4395 8.99162 20.6583C8.77283 20.8771 8.47609 21 8.16667 21C7.85725 21 7.5605 20.8771 7.34171 20.6583C7.12292 20.4395 7 20.1428 7 19.8333C7 19.5239 7.12292 19.2272 7.34171 19.0084C7.5605 18.7896 7.85725 18.6667 8.16667 18.6667C8.47609 18.6667 8.77283 18.7896 8.99162 19.0084C9.21042 19.2272 9.33333 19.5239 9.33333 19.8333ZM9.33333 15.1667C9.33333 15.4761 9.21042 15.7728 8.99162 15.9916C8.77283 16.2104 8.47609 16.3333 8.16667 16.3333C7.85725 16.3333 7.5605 16.2104 7.34171 15.9916C7.12292 15.7728 7 15.4761 7 15.1667C7 14.8572 7.12292 14.5605 7.34171 14.3417C7.5605 14.1229 7.85725 14 8.16667 14C8.47609 14 8.77283 14.1229 8.99162 14.3417C9.21042 14.5605 9.33333 14.8572 9.33333 15.1667Z" fill="#F5F9FC"/>
</symbol>

<!-- map / mark -->
<symbol id="icon-location" viewBox="0 0 32 32">
    <path d="M16 0c-5.523 0-10 4.477-10 10 0 10 10 22 10 22s10-12 10-22c0-5.523-4.477-10-10-10zM16 16.125c-3.383 0-6.125-2.742-6.125-63s2.742-6.125 6.125-6.125 6.125 2.742 6.125 6.125-2.742 6.125-6.125 6.125zM12.125 10c0-2.14 1.735-3.875 3.875-3.875s3.875 1.735 3.875 3.875c0 2.14-1.735 3.875-3.875 3.875s-3.875-1.735-3.875-3.875z"></path>
</symbol>

<symbol id="icon-google" viewBox="0 0 2048 2048">
    <path xmlns="http://www.w3.org/2000/svg" transform="translate(1007,169)" d="m0 0h22l44 1 48 3 30 4 50 9 30 7 44 12 41 14 31 12 27 12 30 14 27 14 21 12 23 14 30 20 36 26 10 8 11 9 14 12 11 9 15 13 3 4-1 7-7 7-7 6-7 8-3 1-1 3-5 5-12 11-7 8-6 5-7 8-131 131-5 4-7 8-10 9-13 13-5 6-5 3-6-1-11-8-8-7-18-13-17-11-20-13-19-11-16-9-31-14-34-13-25-8-27-7-36-6-37-5-21-2-22-1-30 2-38 5-39 7-30 8-36 12-27 11-29 14-25 14-22 14-18 13-16 12-11 9-11 10-8 7-11 10-7 8-8 8-7 8-7 7-9 11-11 14-22 32-15 25-10 18-8 17-8 15-13 30-9 27-7 25-4 20-5 35-4 39-1 18v20l3 38 4 30 7 37 7 25 10 28 11 25 6 13 14 29 9 16 11 18 16 24 12 16 14 17 11 12 12 13 17 17 8 7 12 11 14 11 19 14 21 14 13 8 25 14 26 13 32 13 33 11 28 8 56 9 30 4 23 2h19l35-4 58-9 19-4 48-15 27-11 16-7 25-12 13-8 19-11 18-12 18-13 17-13 13-11 15-14 22-22 7-8 9-10 11-14 11-15 15-22 11-18 14-26 13-26 8-21 7-14h-476l-3-1-2-10-1-35v-254l1-27 1-11 1-2 8-1h738l87 1 4 4 4 20 6 36 3 36 1 21v117l-2 30-3 25-6 34-7 38-10 39-8 27-15 44-11 28-13 29-13 28-24 44-15 25-30 45-14 19-10 12-8 10-11 13-7 8-12 14-15 16-26 26-8 7-10 9-10 8-17 14-13 11-8 6-14 11-15 11-12 8-16 11-17 11-24 14-18 10-24 13-24 12-39 17-37 14-47 15-56 14-67 12-34 4-32 2h-110l-31-2-27-3-29-5-45-8-47-13-17-5-38-13-26-10-24-10-34-16-19-10-16-8-29-17-13-8-33-22-18-13-12-9-18-14-10-9-11-9-7-7-8-7-3-2v-2l-4-2-16-15-24-24-7-8-15-16-9-10-7-8-14-17-14-18-14-19-11-16-15-23-14-23-12-22-8-16-11-23-8-18-13-31-10-26-10-28-11-37-6-23-9-39-8-47-6-47-3-42v-60l2-36 4-37 6-40 6-34 7-29 9-35 13-40 14-38 14-33 16-34 13-28 12-22 13-21 8-13 13-19 13-18 8-11 11-14 9-11 13-16 9-10 7-8 9-10 12-13 8-8 5-6 8-7 8-8 8-7 30-26 14-11 16-13 18-13 19-13 21-14 23-14 17-10 18-10 15-8 23-11 26-12 28-11 36-13 32-10 46-12 68-13 34-4 34-2z" fill="#5DAD5B"/>
    <path xmlns="http://www.w3.org/2000/svg" transform="translate(1007,169)" d="m0 0h22l44 1 48 3 30 4 50 9 30 7 44 12 41 14 31 12 27 12 30 14 27 14 21 12 23 14 30 20 36 26 10 8 11 9 14 12 11 9 15 13 3 4-1 7-7 7-7 6-7 8-3 1-1 3-5 5-12 11-7 8-6 5-7 8-131 131-5 4-7 8-10 9-13 13-5 6-5 3-6-1-11-8-8-7-18-13-17-11-20-13-19-11-16-9-31-14-34-13-25-8-27-7-36-6-37-5-21-2-22-1-30 2-38 5-39 7-30 8-36 12-27 11-29 14-25 14-22 14-18 13-16 12-11 9-11 10-8 7-11 10-7 8-8 8-7 8-7 7-9 11-11 14-22 32-15 25-10 18-8 17-8 15-13 30-9 27-7 25-4 20-5 35-4 39-1 18v20l3 38 4 30 7 37 7 25 10 28 5 12-21 6-13 7-18 13-28 22-13 10-19 14-14 11-15 12-17 13-13 11-11 8-13 10-18 14-14 10-11 8-18 14-16 13-8 6-6 2-11-24-14-32-11-28-13-36-11-37-6-23-9-39-8-47-6-47-3-42v-60l2-36 4-37 6-40 6-34 7-29 9-35 13-40 14-38 14-33 16-34 13-28 12-22 13-21 8-13 13-19 13-18 8-11 11-14 9-11 13-16 9-10 7-8 9-10 12-13 8-8 5-6 8-7 8-8 8-7 30-26 14-11 16-13 18-13 19-13 21-14 23-14 17-10 18-10 15-8 23-11 26-12 28-11 36-13 32-10 46-12 68-13 34-4 34-2z" fill="#FD4A02"/>
    <path xmlns="http://www.w3.org/2000/svg" transform="translate(1029,853)" d="m0 0h742l87 1 4 4 4 20 6 36 3 36 1 21v117l-2 30-3 25-6 34-7 38-10 39-8 27-15 44-11 28-13 29-13 28-24 44-15 25-30 45-14 19-10 12-8 10-11 13-7 8-12 14-15 16-26 26-8 7-8 4-4 1-9-7-11-10-14-11-14-12-11-10-11-9-12-11-7-5v-2l-4-2-15-13-11-9-13-11-10-9-8-7-10-9-11-9-13-12-11-9-12-10-11-9-13-10-12-9-14-10-2-5 7-9 11-12 8-7 17-17 8-7 12-13 9-9 7-8 14-17 9-14 2-7 10-15 11-18 14-26 13-26 8-21 7-14h-476l-3-1-2-10-1-35v-254l1-27 1-11 1-2z" fill="#1675CF"/>
    <path xmlns="http://www.w3.org/2000/svg" transform="translate(271,618)" d="m0 0 2 4-1 1 3 9 5 5 10 6 12 7 17 12v2l5 2 7 5v2l4 2 18 13 11 8 18 14 16 12 9 6 18 13 8 6 14 11 10 8 13 8 5 4 24 18 30 21 7 8 3 3 7 2h5l-3 9-8 20-7 21-7 25-4 20-5 35-4 39-1 18v20l3 38 4 30 7 37 7 25 10 28 5 12-21 6-13 7-18 13-28 22-13 10-19 14-14 11-15 12-17 13-13 11-11 8-13 10-18 14-14 10-11 8-18 14-16 13-8 6-6 2-11-24-14-32-11-28-13-36-11-37-6-23-9-39-8-47-6-47-3-42v-60l2-36 4-37 6-40 6-34 7-29 9-35 13-40 14-38 14-33 16-34z" fill="#FEBD15"/>
    <path xmlns="http://www.w3.org/2000/svg" transform="translate(1029,853)" d="m0 0h742l48 2v1l-242 1-34 1h-56l-102 1h-22l-85 1h-31l-40-1h-39l-5-1h-31l-7 1h-51l-6-2h-13l-6 1-20-2-2 1-1 29v174l1 126 1 4 7 1 3-3 15-2 18-1 11 1 8-1h79l40-1 30-1 47-1h58l14 1h18l50 2h11l34 2 24 2 5 2v2l-412 1h-60l-3-1-2-10-1-35v-254l1-27 1-11 1-2z" fill="#0F61B7"/>
</symbol>
<!-- profile navigation icons -->
<symbol id="icon-notificationsProfile" viewBox="0 0 32 32">
<path d="M16.002 1.332c4.908 0 9.333 3.42 9.333 8v6.052c0 0.856 0.252 1.692 0.727 2.404l2.933 4.397c0.204 0.305 0.321 0.659 0.339 1.025s-0.064 0.73-0.237 1.053c-0.173 0.323-0.43 0.593-0.745 0.781s-0.674 0.287-1.041 0.287h-6.643c0 0.613-0.121 1.22-0.355 1.786s-0.578 1.081-1.012 1.514c-0.433 0.433-0.948 0.777-1.514 1.012s-1.173 0.355-1.786 0.355-1.22-0.121-1.786-0.355c-0.566-0.235-1.081-0.578-1.514-1.012s-0.777-0.948-1.012-1.514c-0.235-0.566-0.355-1.173-0.355-1.786h-6.641c-0.366 0-0.726-0.099-1.040-0.287s-0.572-0.458-0.745-0.781c-0.173-0.323-0.255-0.687-0.238-1.052s0.134-0.72 0.337-1.025l2.933-4.399c0.475-0.712 0.728-1.548 0.728-2.404v-6.052c0-4.58 4.424-8 9.333-8zM8.669 9.332v6.052c0 1.25-0.369 2.473-1.063 3.513l-2.933 4.397-0.004 0.013 0.001 0.009 0.005 0.008 0.008 0.005 0.009 0.001 22.639-0.036-2.932-4.399c-0.694-1.040-1.064-2.263-1.064-3.513v-6.052c0-3.152-3.177-6-7.333-6s-7.333 2.848-7.333 6zM18.669 25.332h-5.333c0 0.707 0.281 1.386 0.781 1.886s1.178 0.781 1.886 0.781 1.386-0.281 1.886-0.781c0.5-0.5 0.781-1.178 0.781-1.886z"></path>
</symbol>
<symbol id="icon-settingsProfile" viewBox="0 0 32 32">
<path d="M3.059 11.813c0.591-1.825 1.562-3.505 2.848-4.928 0.106-0.118 0.245-0.201 0.399-0.239s0.316-0.030 0.465 0.023l3.069 1.098c0.218 0.078 0.451 0.108 0.682 0.087s0.455-0.092 0.656-0.208c0.201-0.116 0.374-0.274 0.508-0.464s0.224-0.406 0.266-0.634l0.586-3.21c0.028-0.156 0.102-0.301 0.213-0.415s0.252-0.192 0.408-0.225c1.874-0.401 3.812-0.401 5.686 0 0.155 0.033 0.297 0.112 0.408 0.225s0.185 0.258 0.213 0.415l0.586 3.21c0.042 0.228 0.133 0.445 0.266 0.634s0.307 0.348 0.508 0.464c0.201 0.116 0.425 0.187 0.656 0.208s0.464-0.009 0.682-0.087l3.070-1.098c0.149-0.053 0.311-0.061 0.465-0.023s0.293 0.122 0.399 0.24c1.286 1.423 2.257 3.102 2.848 4.926 0.049 0.151 0.051 0.313 0.008 0.465s-0.131 0.288-0.253 0.391l-2.488 2.112c-0.177 0.15-0.319 0.337-0.416 0.547s-0.148 0.44-0.148 0.672c0 0.232 0.050 0.461 0.148 0.672s0.239 0.397 0.416 0.548l2.488 2.112c0.121 0.103 0.208 0.239 0.252 0.391s0.040 0.314-0.008 0.465c-0.591 1.825-1.562 3.505-2.848 4.928-0.106 0.118-0.245 0.201-0.399 0.239s-0.316 0.030-0.465-0.023l-3.069-1.098c-0.218-0.078-0.451-0.108-0.682-0.087s-0.455 0.092-0.656 0.208c-0.201 0.116-0.374 0.274-0.508 0.464s-0.224 0.406-0.266 0.634l-0.586 3.211c-0.029 0.156-0.103 0.3-0.213 0.414s-0.252 0.192-0.407 0.225c-1.874 0.401-3.812 0.401-5.686 0-0.155-0.033-0.297-0.112-0.408-0.226s-0.185-0.258-0.213-0.414l-0.586-3.21c-0.042-0.228-0.133-0.445-0.266-0.634s-0.307-0.348-0.508-0.464c-0.201-0.116-0.425-0.187-0.656-0.208s-0.464 0.009-0.682 0.087l-3.069 1.098c-0.149 0.053-0.311 0.061-0.465 0.023s-0.293-0.122-0.399-0.24c-1.286-1.423-2.257-3.102-2.848-4.926-0.049-0.151-0.052-0.313-0.008-0.465s0.131-0.288 0.252-0.391l2.488-2.112c0.177-0.15 0.319-0.337 0.416-0.548s0.148-0.44 0.148-0.672c0-0.232-0.050-0.461-0.148-0.672s-0.239-0.397-0.416-0.547l-2.488-2.112c-0.121-0.103-0.208-0.239-0.252-0.391s-0.040-0.314 0.008-0.465zM4.755 11.803l2.070 1.757c0.354 0.3 0.638 0.674 0.834 1.096s0.296 0.88 0.296 1.344c0 0.464-0.101 0.923-0.296 1.344s-0.479 0.795-0.834 1.096l-2.069 1.757c0.467 1.251 1.141 2.416 1.99 3.443l2.554-0.912c0.165-0.059 0.333-0.104 0.504-0.136 0.835-0.152 1.696 0.034 2.394 0.516s1.175 1.223 1.328 2.058l0.486 2.67c1.317 0.218 2.661 0.218 3.978 0l0.486-2.672c0.083-0.457 0.264-0.89 0.532-1.27s0.614-0.696 1.016-0.929c0.402-0.232 0.85-0.374 1.313-0.415s0.928 0.018 1.365 0.175l2.554 0.914c0.851-1.029 1.524-2.193 1.992-3.443l-2.070-1.757c-0.354-0.3-0.639-0.674-0.835-1.095s-0.297-0.88-0.297-1.345c0-0.465 0.101-0.924 0.297-1.345s0.48-0.795 0.835-1.095l2.070-1.757c-0.468-1.251-1.141-2.414-1.992-3.443l-2.554 0.912c-0.437 0.156-0.903 0.215-1.365 0.173s-0.91-0.184-1.311-0.416c-0.402-0.232-0.748-0.549-1.016-0.928s-0.449-0.812-0.532-1.268l-0.488-2.67c-1.317-0.218-2.661-0.218-3.978 0l-0.486 2.67c-0.083 0.457-0.265 0.889-0.532 1.269s-0.614 0.696-1.016 0.928c-0.402 0.232-0.849 0.374-1.312 0.416s-0.928-0.017-1.365-0.173l-2.555-0.914c-0.85 1.029-1.525 2.193-1.992 3.443zM12.004 16c0-1.061 0.421-2.078 1.172-2.829s1.768-1.172 2.828-1.172c1.061 0 2.078 0.421 2.828 1.172s1.172 1.768 1.172 2.829c0 1.061-0.421 2.078-1.172 2.828s-1.768 1.172-2.828 1.172c-1.061 0-2.078-0.422-2.828-1.172s-1.172-1.768-1.172-2.828zM13.604 16c0 0.637 0.253 1.247 0.703 1.697s1.061 0.703 1.697 0.703 1.247-0.253 1.697-0.703c0.45-0.45 0.703-1.061 0.703-1.697s-0.253-1.247-0.703-1.697c-0.45-0.45-1.061-0.703-1.697-0.703s-1.247 0.253-1.697 0.703c-0.45 0.45-0.703 1.060-0.703 1.697z"></path>
</symbol>
<symbol id="icon-playProfile" viewBox="0 0 32 32">
<path d="M13.567 20.3l6.733-4.3-6.733-4.3v8.6zM16.010 27.6q-2.407 0-4.514-0.917t-3.687-2.495-2.494-3.675-0.914-4.502q0-2.407 0.917-4.531t2.495-3.696 3.675-2.477 4.502-0.906q2.407 0 4.531 0.913t3.696 2.478 2.477 3.68 0.906 4.519q0 2.407-0.909 4.514t-2.478 3.687-3.684 2.494-4.519 0.914zM15.998 26.867q4.519 0 7.694-3.173t3.175-7.692-3.173-7.694-7.692-3.175-7.694 3.173-3.175 7.692 3.173 7.694 7.692 3.175z"></path>
</symbol>
<symbol id="icon-supportProfile" viewBox="0 0 32 32">
<path d="M16.017 26.267v-0.733h8.467q0.417 0 0.742-0.267t0.325-0.7v-9.299q0-3.77-2.831-6.269t-6.714-2.499-6.711 2.498-2.827 6.269v7.4h-0.253q-0.747 0-1.28-0.486t-0.533-1.23v-2.447q0-0.57 0.4-0.987t0.931-0.703l0.002-1.597q0.002-2.014 0.834-3.757t2.23-3.017 3.268-1.992 3.936-0.717 3.931 0.717 3.275 1.992 2.233 3.014 0.843 3.777v1.567q0.5 0.233 0.908 0.608t0.408 0.908v2.85q0 0.55-0.408 0.925t-0.908 0.589v1.886q0 0.719-0.537 1.209t-1.263 0.491h-8.467zM12.669 17.75q-0.345 0-0.59-0.206t-0.245-0.55 0.248-0.577 0.6-0.233q0.335 0 0.577 0.24t0.242 0.583-0.252 0.544-0.58 0.2zM19.335 17.75q-0.345 0-0.59-0.206t-0.245-0.55 0.248-0.577 0.6-0.233q0.335 0 0.577 0.24t0.242 0.583-0.252 0.544-0.58 0.2zM9.25 15.717q-0.2-2.817 1.842-4.8t5.005-1.983q2.393 0 4.281 1.458t2.322 3.825q-2.5-0.017-4.642-1.267t-3.325-3.45q-0.45 2.183-1.933 3.817t-3.55 2.4z"></path>
</symbol>
<symbol id="icon-client" viewBox="0 0 32 32">
<path d="M8.168 5.333c-0.751 0-1.472 0.298-2.003 0.83s-0.83 1.252-0.83 2.003v10.333c0 0.752 0.298 1.472 0.83 2.003s1.252 0.83 2.003 0.83h13.234c-0.48-0.47-0.854-1.039-1.094-1.667h-12.14c-0.153 0-0.305-0.030-0.446-0.089s-0.27-0.145-0.378-0.253c-0.108-0.108-0.194-0.237-0.253-0.378s-0.089-0.293-0.089-0.447v-10.333c0-0.644 0.523-1.167 1.167-1.167h15.667c0.645 0 1.167 0.523 1.167 1.167v5.179c0.593 0.041 1.155 0.194 1.667 0.437v-5.616c0-0.751-0.298-1.472-0.83-2.003s-1.252-0.83-2.003-0.83h-15.667zM3.501 23.667h13.985c-0.101 0.323-0.152 0.66-0.152 0.999v0.335c0 0.112 0.004 0.223 0.011 0.333h-13.844c-0.221 0-0.433-0.088-0.589-0.244s-0.244-0.368-0.244-0.589c0-0.221 0.088-0.433 0.244-0.589s0.368-0.244 0.589-0.244zM28.001 18c0 0.884-0.351 1.732-0.976 2.357s-1.473 0.976-2.357 0.976-1.732-0.351-2.357-0.976c-0.625-0.625-0.976-1.473-0.976-2.357s0.351-1.732 0.976-2.357c0.625-0.625 1.473-0.976 2.357-0.976s1.732 0.351 2.357 0.976c0.625 0.625 0.976 1.473 0.976 2.357zM30.668 25c0 2.333-2.1 4.333-6 4.333s-6-2-6-4.333v-0.335c0-0.53 0.211-1.039 0.586-1.413s0.884-0.585 1.414-0.585h8c1.105 0 2 0.893 2 1.999v0.335z"></path>
</symbol>


<symbol id="icon-lockedSVG" viewBox="0 0 32 32">
<path d="M25 12h-1v-3.816c0-4.589-3.32-8.184-8.037-8.184-4.736 0-7.963 3.671-7.963 8.184v3.816h-1c-2.206 0-4 1.794-4 4v12c0 2.206 1.794 4 4 4h18c2.206 0 4-1.794 4-4v-12c0-2.206-1.794-4-4-4zM10 8.184c0-3.409 2.33-6.184 5.963-6.184 3.596 0 6.037 2.716 6.037 6.184v3.816h-12v-3.816zM27 28c0 1.103-0.897 2-2 2h-18c-1.103 0-2-0.897-2-2v-12c0-1.102 0.897-2 2-2h18c1.103 0 2 0.898 2 2v12zM16 18c-1.104 0-2 0.896-2 2 0 0.739 0.405 1.376 1 1.723v3.277c0 0.552 0.448 1 1 1s1-0.448 1-1v-3.277c0.595-0.347 1-0.984 1-1.723 0-1.104-0.896-2-2-2z"></path>
</symbol>
<symbol id="icon-likeSVG" viewBox="0 0 32 32">
<path d="M25.714 16.86c0.943-0.958 1.466-2.25 1.456-3.594s-0.554-2.628-1.512-3.571c-0.474-0.467-1.036-0.836-1.652-1.085s-1.277-0.376-1.942-0.371c-1.344 0.011-2.628 0.554-3.571 1.512-0.256 0.256-0.581 0.57-0.976 0.943l-1.097 1.033-1.097-1.033c-0.396-0.373-0.721-0.688-0.977-0.943-0.95-0.95-2.239-1.484-3.583-1.484s-2.633 0.534-3.583 1.484c-1.957 1.959-1.98 5.125-0.072 7.093l9.312 9.312 9.295-9.296zM6.048 8.62c0.619-0.619 1.354-1.11 2.163-1.446s1.676-0.508 2.552-0.508c0.876 0 1.743 0.173 2.552 0.508s1.544 0.826 2.163 1.446c0.243 0.244 0.557 0.547 0.943 0.909 0.384-0.363 0.698-0.666 0.943-0.911 1.241-1.26 2.931-1.975 4.699-1.989s3.469 0.676 4.729 1.917 1.975 2.931 1.988 4.699c0.014 1.768-0.676 3.469-1.916 4.729l-9.5 9.501c-0.25 0.25-0.589 0.39-0.943 0.39s-0.693-0.14-0.943-0.39l-9.503-9.503c-1.219-1.257-1.894-2.942-1.88-4.693s0.715-3.425 1.954-4.663v0.003z"></path>
</symbol>
<symbol id="icon-phoneSVG" viewBox="0 0 32 32">
<path d="M27.699 20.038l-5.905-2.646c-0.267-0.115-0.559-0.161-0.849-0.134s-0.568 0.125-0.811 0.287c-0.025 0.016-0.048 0.033-0.070 0.052l-3.086 2.625c-0.032 0.017-0.068 0.027-0.104 0.029s-0.073-0.006-0.106-0.021c-1.984-0.958-4.039-3-5-4.956-0.016-0.033-0.024-0.069-0.024-0.105s0.008-0.072 0.024-0.105l2.634-3.125c0.019-0.023 0.036-0.047 0.053-0.072 0.159-0.243 0.255-0.522 0.28-0.812s-0.024-0.581-0.14-0.847l-2.627-5.895c-0.149-0.348-0.407-0.638-0.735-0.827s-0.709-0.266-1.085-0.22c-1.633 0.215-3.133 1.017-4.218 2.257s-1.682 2.832-1.678 4.48c0 9.787 7.963 17.75 17.75 17.75 1.647 0.003 3.24-0.593 4.479-1.679s2.042-2.584 2.257-4.218c0.046-0.374-0.031-0.753-0.218-1.080s-0.474-0.585-0.82-0.736zM22 26.25c-8.96 0-16.25-7.29-16.25-16.25-0.004-1.283 0.459-2.523 1.302-3.489s2.010-1.592 3.281-1.761h0.029c0.050 0.001 0.099 0.017 0.14 0.046s0.072 0.070 0.090 0.117l2.637 5.889c0.015 0.033 0.023 0.068 0.023 0.104s-0.008 0.072-0.023 0.104l-2.639 3.133c-0.020 0.022-0.038 0.046-0.054 0.071-0.165 0.252-0.262 0.543-0.282 0.843s0.038 0.601 0.169 0.873c1.109 2.27 3.396 4.54 5.691 5.649 0.273 0.13 0.575 0.186 0.877 0.164s0.592-0.122 0.844-0.289c0.024-0.016 0.048-0.034 0.070-0.052l3.085-2.625c0.030-0.016 0.064-0.026 0.099-0.028s0.069 0.003 0.101 0.016l5.906 2.646c0.048 0.021 0.089 0.056 0.116 0.101s0.039 0.097 0.035 0.149c-0.168 1.272-0.793 2.439-1.759 3.284s-2.206 1.308-3.489 1.305z"></path>
</symbol>
<symbol id="icon-imgSVG" viewBox="0 0 2048 2048">
<path transform="translate(304,337)" d="m0 0h1439l22 3 18 5 20 8 20 11 16 12 11 10 5 5 11 12 11 16 7 12 8 18 5 15 4 18 2 15 1 529v395l-1 131-4 24-5 18-9 21-10 17-10 14-11 12-5 5-11 10-16 11-18 10-20 8-18 5-18 3-12 1h-1425l-20-2-21-5-19-7-16-8-12-7-16-12-22-22-11-15-9-15-7-15-7-20-5-25-1-10v-1050l3-21 5-19 5-13 8-17 8-13 8-11 7-9 13-13h2v-2l14-11 19-12 17-8 21-7 20-4zm173 93-166 1-12 2-16 6-12 8-11 10-8 11-8 15-4 14-1 33v697l2 1 8-7 12-12v-2l4-2v-2l4-2 152-152v-2l4-2v-2l4-2v-2l4-2v-2l4-2v-2l4-2v-2l4-2v-2l4-2v-2l4-2v-2l4-2v-2l4-2v-2l4-2v-2l4-2v-2l4-2v-2l4-2v-2l4-2v-2l4-2v-2l4-2v-2l4-2v-2l4-2v-2l4-2v-2l4-2v-2l4-2v-2l4-2v-2l4-2v-2l4-2v-2l4-2v-2l4-2v-2l4-2v-2l4-2v-2l4-2v-2l4-2v-2l4-2v-2l4-2v-2l4-2v-2l4-2v-2l4-2v-2l4-2v-2l4-2v-2l4-2v-2l3-1 5-6 7-6 17-17 14-11 15-11 19-11 19-9 20-7 21-6 25-4 14-1h25l20 2 22 4 20 6 19 7 21 10 18 11 16 12 13 11 276 276h2l1 3 6 5 5-2 7-8 11-11 6-5 5-6 7-6 5-6 7-6 5-6 7-6 5-6 7-6 5-6 8-7 8-8 14-11 15-11 19-11 19-9 20-7 21-6 25-4 14-1h25l20 2 22 4 26 8 20 8 21 11 18 12 14 11 12 11 156 156h2l2 4h2l2 4 6 5h1v-727l-4-16-5-12-6-10-9-11-13-10-14-7-14-4-6-1-160-1zm289 464-23 2-20 5-20 8-15 9-18 14-430 430-1 36v139l1 14 5 17 8 14 10 11 5 5 9 7 15 7 13 4 6 1 158 1h1071l195-1 15-3 13-5 14-8 12-11 9-12 6-12 4-14 1-9v-179l-7-8-236-236-11-8-18-11-20-8-21-5-6-1-20-1-23 2-20 5-20 8-15 9-18 14-90 90 1 5 95 95 6 10 4 10 1 11-2 12-4 9-6 9-9 8-12 5-7 2h-14l-13-4-12-8-450-450-11-8-16-10-14-6-15-5-20-4z"/>
<path transform="translate(1205,625)" d="m0 0h23l13 3 16 8 10 7 7 6 10 13 8 17 3 12 1 14-2 16-5 15-6 11-12 15-14 10-12 6-18 5h-21l-16-4-16-8-12-9v-2l-4-2-8-10-8-16-4-12-1-5v-21l4-16 4-10 8-12 11-12 10-8 15-7z"/>
</symbol>
<symbol id="icon-clientSVG" viewBox="0 0 2048 2048">
<path transform="translate(339,379)" d="m0 0h1368l23 2 16 4 16 6 18 10 13 10 10 9 11 13 8 13 10 21 5 18 2 13v1051l-3 18-8 24-9 16-10 14-6 7h-2v2h-2v2l-11 9-15 10-14 7-18 6-15 3-10 1h-1384l-22-3-21-7-17-9-14-10-13-12-9-11-8-11-8-15-6-17-4-17-1-9v-1047l4-22 5-15 8-16 10-16 12-13 8-8 15-11 17-9 21-7 17-3zm5 94-15 2-10 5-8 8-7 14-1 17v1019l2 11 6 11 9 8 8 4 7 2 78 1h1217l83-1 10-3 11-7 7-10 3-7 1-7v-1034l-3-10-6-10-7-6-10-5-16-2z"/>
<path transform="translate(759,635)" d="m0 0h19l22 2 20 4 20 6 20 8 22 12 12 8 13 10 12 11 14 14 11 14 12 18 10 19 10 25 6 24 3 19 1 10v30l-3 24-6 24-9 24-8 17-12 19-12 16-6 7h-2l-2 4-8 8h-2v2l-8 7-15 11-16 10-19 10-21 8-26 7-19 3-10 1h-29l-17-2-24-5-16-5-15-6-16-8-11-6-16-11-11-9-10-9-13-13-11-14-9-13-8-14-11-23-7-21-5-22-2-13-1-12v-22l3-27 6-25 5-15 8-18 10-19 12-17 18-22 8-7 10-9 18-13 13-8 22-11 22-8 20-5 21-3zm-5 95-17 3-15 5-16 8-11 7-13 11-6 6v2h-2l-11 16-10 19-5 15-3 19-1 16 2 18 5 19 7 16 7 12 9 12 15 15 13 9 19 10 15 5 16 3 11 1h13l19-3 15-4 21-10 13-9 13-11 11-13 10-16 7-16 5-19 2-16v-13l-3-21-5-16-7-16-10-16-11-12-10-10-15-10-19-9-14-4-16-3z"/>
<path transform="translate(632,1233)" d="m0 0h270l23 3 17 4 20 7 23 11 17 11 9 7 11 9 17 17 15 20 10 17 6 13 2 11-1 12-5 13-7 9-5 5-10 6-13 4h-13l-13-3-11-7v-2l-4-2-9-13-8-13-8-10-10-10-13-9-16-8-16-5-12-2h-259l-16 3-18 6-14 8-13 10-9 9-10 15-9 15-5 6-10 7-11 4-5 1h-14l-12-3-11-7-8-9-6-10-3-10v-15l5-15 8-14 11-16 14-17 13-13 14-11 10-7 15-9 19-9 24-8 25-5z"/>
<path transform="translate(1270,721)" d="m0 0h274l13 4 10 7 7 7 8 16 1 4v18l-4 11-6 10-7 7-10 6-10 3-7 1h-264l-12-3-10-5-9-8-8-13-3-11v-15l4-12 7-11 7-7 10-6z"/>
<path transform="translate(1270,977)" d="m0 0h274l13 4 10 7 7 7 8 16 1 4v18l-4 11-6 10-7 7-10 6-10 3-7 1h-264l-12-3-10-5-9-8-8-13-3-11v-15l4-12 7-11 7-7 11-6z"/>
<path transform="translate(1270,1233)" d="m0 0h274l13 4 10 7 7 7 8 16 1 4v18l-4 11-6 10-7 7-10 6-10 3-7 1h-264l-12-3-10-5-9-8-8-13-3-11v-15l4-12 7-11 7-7 11-6z"/>
</symbol>
<symbol id="icon-binSVG" viewBox="0 0 2048 2048">
<path transform="translate(769,110)" d="m0 0h509l22 2 25 5 20 6 19 8 16 8 18 11 14 11 11 9 17 17 9 11 12 17 9 15 8 16 13 27 13 28 16 34 18 38 32 68 4 8v2h304l15 2 11 4 9 6 10 9 8 11 5 12 2 9v14l-4 16-5 10-7 9-7 7-10 6-13 5-7 1h-124l-1 11-10 92-10 88-10 92-10 88-10 92-10 88-10 92-10 88-10 92-10 88-10 92-10 88-7 64-4 26-5 21-7 19-8 18-10 18-11 16-14 17-20 20-20 15-16 10-15 8-19 8-18 6-21 5-23 3-16 1h-768l-23-2-18-3-19-5-20-7-18-8-22-13-16-12-14-12-16-16-9-11-12-17-11-19-8-17-8-22-5-20-4-27-11-98-117-1053v-4h-127l-14-4-10-6-10-9-7-9-6-12-3-12v-16l4-15 8-14 12-12 10-6 10-4 15-2h291l14-1 26-56 15-31 6-13 17-36 9-19 10-22 6-12 11-23 8-15 7-11 12-16 9-11 18-18 14-11 14-10 21-12 18-8 27-9 25-5zm2 121-14 2-16 5-16 8-9 6-11 9-11 12-10 15-18 38-10 22-8 16-32 68-8 18v1l105 1h605l122-1-2-6-5-10-9-20-13-27-13-28-12-25-12-26-8-17-9-15-8-10-10-10-14-10-15-8-16-5-16-3zm-361 341-1 1 1 15 36 323 38 343 38 341 13 117 3 19 5 17 8 16 8 11 9 10 11 10 13 8 12 6 16 5 17 3 91 1h606l75-1 20-3 15-5 19-10 10-8 10-9 10-12 9-16 6-16 4-18 38-343 38-341 38-343 13-117v-4z"/>
<path transform="translate(846,878)" d="m0 0h14l14 3 12 6 13 11 9 13 4 10 2 11v437l-3 16-7 14-11 12-9 7-11 5-14 3h-12l-16-4-12-6-12-11-7-10-5-11-2-9v-447l5-15 7-12 11-11 14-8z"/>
<path transform="translate(1187,878)" d="m0 0h15l16 4 12 7 10 9 8 11 4 8 3 13v444l-3 11-8 16-9 10-10 7-11 5-14 3h-12l-16-4-14-8-8-7-8-11-6-14-2-10v-441l3-13 5-10 8-11 9-8 10-6 12-4z"/>
</symbol>
<symbol id="icon-logOutSVG" viewBox="0 0 30 32">
<path d="M2.235 1.473c-0.593 0-1.161 0.235-1.58 0.655s-0.655 0.988-0.655 1.58v24.584c0 0.593 0.235 1.161 0.655 1.58s0.988 0.655 1.58 0.655h16.762c0.296 0 0.581-0.118 0.79-0.327s0.327-0.494 0.327-0.79-0.118-0.581-0.327-0.79c-0.21-0.21-0.494-0.327-0.79-0.327h-16.762v-24.584h16.762c0.296 0 0.581-0.118 0.79-0.327s0.327-0.494 0.327-0.79c0-0.296-0.118-0.581-0.327-0.79s-0.494-0.327-0.79-0.327h-16.762zM23.699 10.18c-0.21-0.21-0.494-0.328-0.791-0.328s-0.581 0.118-0.791 0.328-0.328 0.494-0.328 0.791c0 0.297 0.118 0.581 0.328 0.791l3.122 3.12h-15.182c-0.296 0-0.581 0.118-0.79 0.327s-0.327 0.494-0.327 0.79 0.118 0.581 0.327 0.79c0.21 0.21 0.494 0.327 0.79 0.327h15.182l-3.122 3.12c-0.21 0.21-0.328 0.494-0.328 0.791s0.118 0.581 0.328 0.791 0.494 0.328 0.791 0.328c0.297 0 0.581-0.118 0.791-0.328l5.029-5.029c0.104-0.104 0.187-0.227 0.243-0.363s0.085-0.281 0.085-0.428c0-0.147-0.029-0.293-0.085-0.428s-0.139-0.259-0.243-0.363l-5.029-5.029z"></path>
</symbol>
</defs>
</svg>